<?xml version="1.0" encoding="UTF-8"?>
<svg version="1.1" xmlns="http://www.w3.org/2000/svg" width="500" height="500">
<path d="M0 0 C2.05078125 0.03255208 4.1015625 0.06510417 6.15234375 0.09765625 C6.15234375 0.75765625 6.15234375 1.41765625 6.15234375 2.09765625 C6.81234375 2.09765625 7.47234375 2.09765625 8.15234375 2.09765625 C9.35400391 3.40771484 9.35400391 3.40771484 10.69140625 5.24609375 C11.19027344 5.92285156 11.68914062 6.59960938 12.203125 7.296875 C12.98236328 8.37388672 12.98236328 8.37388672 13.77734375 9.47265625 C18.41641017 15.82275496 23.23081601 21.94574658 28.15234375 28.09765625 C28.48234375 18.85765625 28.81234375 9.61765625 29.15234375 0.09765625 C32.12234375 0.09765625 35.09234375 0.09765625 38.15234375 0.09765625 C39.15234375 1.09765625 39.15234375 1.09765625 39.27259827 3.00221252 C39.27037766 3.83494186 39.26815704 4.6676712 39.26586914 5.52563477 C39.26579361 6.46653458 39.26571808 7.40743439 39.26564026 8.37684631 C39.26047897 9.39975266 39.25531769 10.422659 39.25 11.4765625 C39.24858505 12.51836166 39.2471701 13.56016083 39.24571228 14.63352966 C39.24009455 17.97576719 39.22753905 21.31793882 39.21484375 24.66015625 C39.20983103 26.91992091 39.20526773 29.17968662 39.20117188 31.43945312 C39.19011936 36.99221016 39.17336399 42.5449285 39.15234375 48.09765625 C37.55021211 48.16917295 35.94716 48.22027294 34.34399414 48.26269531 C33.0051693 48.30864838 33.0051693 48.30864838 31.63929749 48.35552979 C28.82057625 48.0632551 27.95942873 47.51980257 26.0859375 45.45703125 C25.22104192 44.27731035 24.38988036 43.07228974 23.58984375 41.84765625 C23.1414917 41.22101074 22.69313965 40.59436523 22.23120117 39.94873047 C21.30703893 38.65487072 20.39562504 37.35181202 19.49707031 36.04003906 C17.82526684 33.62521182 16.06217102 31.28913081 14.28076172 28.95458984 C12.55402442 26.68196009 10.85591492 24.38770274 9.15234375 22.09765625 C8.82234375 30.67765625 8.49234375 39.25765625 8.15234375 48.09765625 C4.52234375 48.09765625 0.89234375 48.09765625 -2.84765625 48.09765625 C-2.87229921 41.42244743 -2.89048892 34.74726485 -2.90258789 28.07202148 C-2.9076295 25.79923034 -2.91446262 23.52644245 -2.9230957 21.25366211 C-2.93516886 17.99462074 -2.94088612 14.73562208 -2.9453125 11.4765625 C-2.95047379 10.45365616 -2.95563507 9.43074982 -2.96095276 8.37684631 C-2.96102829 7.4359465 -2.96110382 6.49504669 -2.96118164 5.52563477 C-2.96340225 4.69290543 -2.96562286 3.86017609 -2.96791077 3.00221252 C-2.80689768 0.45213376 -2.5565327 0.13512329 0 0 Z " fill="#A82AA2" transform="translate(177.84765625,228.90234375)"/>
<path d="M0 0 C1.02544922 -0.02900391 2.05089844 -0.05800781 3.10742188 -0.08789062 C10.38220708 -0.14839748 16.10925129 0.76525499 21.58056641 5.83496094 C25.53033791 10.13579166 25.60387981 14.86299727 25.37109375 20.4921875 C24.76007661 24.46655122 23.64276217 26.36853822 20.9375 29.3125 C19.9475 29.8075 19.9475 29.8075 18.9375 30.3125 C20.24269183 35.40274812 22.66313087 39.06163942 25.6953125 43.26171875 C26.9375 45.3125 26.9375 45.3125 26.9375 48.3125 C22.9775 48.3125 19.0175 48.3125 14.9375 48.3125 C14.52757812 47.55324219 14.11765625 46.79398437 13.6953125 46.01171875 C13.15648437 45.01785156 12.61765625 44.02398437 12.0625 43 C11.52882813 42.01386719 10.99515625 41.02773438 10.4453125 40.01171875 C8.93027874 37.21663542 8.93027874 37.21663542 6.9375 34.3125 C4.97388136 33.73501197 4.97388136 33.73501197 2.8125 33.625 C1.53375 33.521875 0.255 33.41875 -1.0625 33.3125 C-1.0625 38.2625 -1.0625 43.2125 -1.0625 48.3125 C-8.77734375 48.41015625 -8.77734375 48.41015625 -11.0625 48.3125 C-12.63550328 46.73949672 -12.18975504 45.17565955 -12.19189453 42.9921875 C-12.19504669 42.07453613 -12.19819885 41.15688477 -12.20144653 40.21142578 C-12.1994223 39.21353027 -12.19739807 38.21563477 -12.1953125 37.1875 C-12.19626923 36.17026855 -12.19722595 35.15303711 -12.19821167 34.10498047 C-12.19889361 31.94954364 -12.19703835 29.79410478 -12.19287109 27.63867188 C-12.18752305 24.32677629 -12.19281563 21.01501633 -12.19921875 17.703125 C-12.19855797 15.61458303 -12.19727681 13.52604115 -12.1953125 11.4375 C-12.19733673 10.43960449 -12.19936096 9.44170898 -12.20144653 8.41357422 C-12.19829437 7.49592285 -12.19514221 6.57827148 -12.19189453 5.6328125 C-12.19109894 4.82086426 -12.19030334 4.00891602 -12.18948364 3.17236328 C-11.84603104 -1.85800815 -3.76779293 0.03460924 0 0 Z M-1.0625 10.3125 C-1.0625 14.6025 -1.0625 18.8925 -1.0625 23.3125 C2.0621875 23.4671875 2.0621875 23.4671875 5.25 23.625 C6.42175781 23.68300781 7.59351563 23.74101562 8.80078125 23.80078125 C12.10366347 23.64411172 12.10366347 23.64411172 13.86328125 20.95703125 C15.13920402 17.81594138 15.10150532 16.47194301 13.9375 13.3125 C12.81730187 11.56603484 12.81730187 11.56603484 10.9375 10.3125 C7.96557238 9.94930691 7.96557238 9.94930691 4.75 10.125 C1.8728125 10.2178125 1.8728125 10.2178125 -1.0625 10.3125 Z " fill="#141414" transform="translate(337.0625,228.6875)"/>
<path d="M0 0 C5.05822546 3.35129779 8.86996802 7.95052597 11.7109375 13.27734375 C13.03360784 21.70936718 13.31936061 29.30303488 8.2109375 36.46484375 C3.78141372 41.73238554 -0.93249587 44.80923829 -7.6015625 46.33984375 C-14.49797634 46.90336395 -21.10928646 45.42154167 -26.7890625 41.46484375 C-32.64728655 35.49130032 -34.74696268 29.74002423 -34.921875 21.44140625 C-34.53118182 12.68528252 -30.47880238 6.97009663 -24.2890625 1.08984375 C-16.63514643 -3.88520169 -8.09120409 -3.98882166 0 0 Z M-20.7890625 11.46484375 C-24.12792564 16.25054758 -24.5301324 20.81037887 -23.7890625 26.46484375 C-22.12207188 31.11487022 -20.11839994 34.01782694 -15.7890625 36.46484375 C-11.31152227 37.26266001 -7.93178582 37.08588903 -3.9140625 34.90234375 C-0.44571697 30.9239474 1.02516209 27.1987476 1.5859375 21.96484375 C0.99087034 16.41088358 -0.31361595 12.77262592 -4.5390625 9.02734375 C-10.96844046 5.93629665 -15.44920273 6.85314668 -20.7890625 11.46484375 Z " fill="#171717" transform="translate(305.7890625,231.53515625)"/>
<path d="M0 0 C1.34888732 0.00015905 2.69778075 0.00584927 4.04663086 0.01586914 C5.10991859 0.01799156 5.10991859 0.01799156 6.19468689 0.02015686 C8.46699173 0.02577096 10.73919936 0.03832576 13.01147461 0.05102539 C14.54858257 0.05603858 16.08569206 0.0606018 17.62280273 0.06469727 C21.39823103 0.07574497 25.17358632 0.09301898 28.94897461 0.11352539 C28.94897461 3.41352539 28.94897461 6.71352539 28.94897461 10.11352539 C21.68897461 10.11352539 14.42897461 10.11352539 6.94897461 10.11352539 C6.94897461 13.08352539 6.94897461 16.05352539 6.94897461 19.11352539 C13.21897461 19.11352539 19.48897461 19.11352539 25.94897461 19.11352539 C25.94897461 22.41352539 25.94897461 25.71352539 25.94897461 29.11352539 C19.67897461 29.11352539 13.40897461 29.11352539 6.94897461 29.11352539 C6.94897461 32.41352539 6.94897461 35.71352539 6.94897461 39.11352539 C14.53897461 39.11352539 22.12897461 39.11352539 29.94897461 39.11352539 C29.94897461 42.08352539 29.94897461 45.05352539 29.94897461 48.11352539 C18.72897461 48.11352539 7.50897461 48.11352539 -4.05102539 48.11352539 C-4.07392943 41.43827135 -4.09385803 34.76315259 -4.10595703 28.08789062 C-4.11099864 25.81509948 -4.11783176 23.54231159 -4.12646484 21.26953125 C-4.138538 18.01048988 -4.14425526 14.75149122 -4.14868164 11.49243164 C-4.15384293 10.4695253 -4.15900421 9.44661896 -4.1643219 8.39271545 C-4.16439743 7.45181564 -4.16447296 6.51091583 -4.16455078 5.54150391 C-4.16677139 4.70877457 -4.168992 3.87604523 -4.17127991 3.01808167 C-3.96742375 -0.21053329 -3.29409076 0.12256959 0 0 Z " fill="#1B1B1B" transform="translate(375.051025390625,228.886474609375)"/>
<path d="M0 0 C-0.76403415 3.47153381 -2.08186911 5.99770818 -4 9 C-6.21894132 8.50690193 -8.08289367 7.95855317 -10.125 6.9375 C-14.38755687 5.5475358 -18.55407858 5.84460857 -23 6 C-23 7.98 -23 9.96 -23 12 C-22.38253906 12.18175781 -21.76507813 12.36351562 -21.12890625 12.55078125 C-5.79775281 17.1011236 -5.79775281 17.1011236 -2 19 C-2 19.66 -2 20.32 -2 21 C-1.34 21 -0.68 21 0 21 C2.49713415 24.74570122 2.52793578 28.65919466 2 33 C0.20588518 38.18299836 -2.2050317 40.41071712 -7 43 C-14.75518887 45.44900701 -24.85314425 44.4037009 -32.19140625 40.9765625 C-33.82935383 40.04342873 -35.42101829 39.02977068 -37 38 C-35.80100302 34.9168649 -34.52299523 31.93720508 -33 29 C-29.89763201 29.47005576 -27.60433036 30.19022579 -24.75 31.5625 C-20.55026693 33.47231239 -16.53155664 33.27744224 -12 33 C-11.67 31.35 -11.34 29.7 -11 28 C-11.7734375 27.75765625 -12.546875 27.5153125 -13.34375 27.265625 C-28.27547377 22.4608624 -28.27547377 22.4608624 -32.9375 18.25 C-35.28815657 13.27213904 -35.41846027 9.39486757 -33.875 4.25 C-31.46373776 0.07047879 -28.9419113 -1.8903364 -24.8125 -4.25 C-15.53124875 -6.72500033 -8.43268271 -4.05696075 0 0 Z " fill="#6072C5" transform="translate(122,234)"/>
<path d="M0 0 C1.98408873 1.89621534 3.40828211 3.74078751 5 6 C3.63016497 9.16115776 3.0109362 9.9927092 0 12 C-2.6875 11.625 -2.6875 11.625 -5 11 C-5 10.34 -5 9.68 -5 9 C-9.19959737 6.90020131 -13.37224542 6.09614168 -18 7 C-21.52270578 8.97392996 -23.70015869 11.10047608 -25 15 C-25.51517313 20.37975879 -25.6689224 24.68522149 -23.1875 29.5625 C-20.11466587 32.98651517 -18.72127636 33.95420468 -14.0625 34.25 C-10.88939801 34.15701533 -8.61646246 33.93812034 -6 32 C-4.26574227 29.96682993 -4.26574227 29.96682993 -3 28 C-0.0280615 29.12451727 2.33440687 30.22293791 5 32 C4.6999825 35.50020422 4.04266259 36.94904191 1.75 39.6875 C-3.74610635 44.30922579 -9.97564153 45.09596118 -17 45 C-21.535576 44.06300975 -25.15111838 42.56592108 -29 40 C-29 39.34 -29 38.68 -29 38 C-29.66 38 -30.32 38 -31 38 C-31 37.34 -31 36.68 -31 36 C-31.66 36 -32.32 36 -33 36 C-37.54219977 26.87334745 -38.9436398 20.35112687 -35.9609375 10.5 C-34.78655292 7.44469052 -33.39407786 5.23962123 -31 3 C-30.34 3 -29.68 3 -29 3 C-29 2.34 -29 1.68 -29 1 C-27.68 0.67 -26.36 0.34 -25 0 C-25 -0.66 -25 -1.32 -25 -2 C-16.06631613 -5.04125408 -8.18846365 -5.22667892 0 0 Z " fill="#B31A6B" transform="translate(262,233)"/>
<path d="M0 0 C3.44856179 -0.48212903 6.57098637 -0.68685135 10 0 C13.65824258 3.37116077 15.53871148 8.07958911 16 13 C16.66 13 17.32 13 18 13 C18.99 14.98 19.98 16.96 21 19 C24.27162323 16.28865476 25.7846168 12.69590684 27.5625 8.9375 C30.74493243 2.25506757 30.74493243 2.25506757 33 0 C35.3828125 -0.1953125 35.3828125 -0.1953125 38.125 -0.125 C39.03507812 -0.10695312 39.94515625 -0.08890625 40.8828125 -0.0703125 C41.58148438 -0.04710937 42.28015625 -0.02390625 43 0 C42.48690082 4.97253474 40.80602353 8.60395042 38.25 12.8125 C37.5243339 14.04272954 36.79907367 15.27319859 36.07421875 16.50390625 C35.72020996 17.0983252 35.36620117 17.69274414 35.00146484 18.30517578 C33.64697173 20.5974457 32.3503598 22.91976687 31.0625 25.25 C30.68222656 25.93578125 30.30195313 26.6215625 29.91015625 27.328125 C27.71176722 31.36636751 27.66167716 35.09735633 27.4375 39.625 C27.39431641 40.42679687 27.35113281 41.22859375 27.30664062 42.0546875 C27.20048543 44.0362511 27.09973145 46.01810271 27 48 C23.37 48 19.74 48 16 48 C15.99742187 46.90042969 15.99484375 45.80085938 15.9921875 44.66796875 C15.80201869 34.85703758 14.49019586 28.33696408 9 20 C7.92151214 18.05042578 6.85879683 16.09203804 5.8125 14.125 C4.38626795 11.49256068 2.95997085 8.93860331 1.32421875 6.4296875 C0 4 0 4 0 0 Z " fill="#7D55E6" transform="translate(126,229)"/>
<path d="M0 0 C2.05078125 0.03255208 4.1015625 0.06510417 6.15234375 0.09765625 C6.15234375 0.75765625 6.15234375 1.41765625 6.15234375 2.09765625 C6.81234375 2.09765625 7.47234375 2.09765625 8.15234375 2.09765625 C9.38916016 3.47460938 9.38916016 3.47460938 10.75390625 5.37890625 C11.24375 6.05566406 11.73359375 6.73242188 12.23828125 7.4296875 C13.00011719 8.50283203 13.00011719 8.50283203 13.77734375 9.59765625 C14.55078125 10.67080078 14.55078125 10.67080078 15.33984375 11.765625 C16.61657334 13.53886054 17.88704402 15.31625573 19.15234375 17.09765625 C18.51296875 17.38640625 17.87359375 17.67515625 17.21484375 17.97265625 C15.00028296 18.92589076 15.00028296 18.92589076 14.15234375 21.09765625 C13.49234375 21.09765625 12.83234375 21.09765625 12.15234375 21.09765625 C12.15234375 22.08765625 12.15234375 23.07765625 12.15234375 24.09765625 C12.81234375 24.42765625 13.47234375 24.75765625 14.15234375 25.09765625 C13.16234375 25.09765625 12.17234375 25.09765625 11.15234375 25.09765625 C10.49234375 24.10765625 9.83234375 23.11765625 9.15234375 22.09765625 C8.82234375 30.67765625 8.49234375 39.25765625 8.15234375 48.09765625 C4.52234375 48.09765625 0.89234375 48.09765625 -2.84765625 48.09765625 C-2.87229921 41.42244743 -2.89048892 34.74726485 -2.90258789 28.07202148 C-2.9076295 25.79923034 -2.91446262 23.52644245 -2.9230957 21.25366211 C-2.93516886 17.99462074 -2.94088612 14.73562208 -2.9453125 11.4765625 C-2.95047379 10.45365616 -2.95563507 9.43074982 -2.96095276 8.37684631 C-2.96102829 7.4359465 -2.96110382 6.49504669 -2.96118164 5.52563477 C-2.96340225 4.69290543 -2.96562286 3.86017609 -2.96791077 3.00221252 C-2.80689768 0.45213376 -2.5565327 0.13512329 0 0 Z " fill="#9732D8" transform="translate(177.84765625,228.90234375)"/>
<path d="M0 0 C3.10296603 1.98061662 4.90790085 4.29190968 7.01953125 7.2890625 C5.64969622 10.45022026 5.03046745 11.2817717 2.01953125 13.2890625 C-0.66796875 12.9140625 -0.66796875 12.9140625 -2.98046875 12.2890625 C-2.98046875 11.6290625 -2.98046875 10.9690625 -2.98046875 10.2890625 C-7.1670207 8.19578653 -11.36615108 7.35715129 -15.98046875 8.2890625 C-18.24648445 9.74723852 -19.99354493 11.44076127 -21.98046875 13.2890625 C-22.97046875 13.2890625 -23.96046875 13.2890625 -24.98046875 13.2890625 C-24.98046875 18.8990625 -24.98046875 24.5090625 -24.98046875 30.2890625 C-26.96046875 30.7840625 -26.96046875 30.7840625 -28.98046875 31.2890625 C-29.97046875 31.7840625 -29.97046875 31.7840625 -30.98046875 32.2890625 C-30.48546875 29.3190625 -30.48546875 29.3190625 -29.98046875 26.2890625 C-30.97046875 26.2890625 -31.96046875 26.2890625 -32.98046875 26.2890625 C-34.01206501 23.19427371 -33.95529737 21.76274857 -33.54296875 18.6015625 C-33.44113281 17.79332031 -33.33929688 16.98507813 -33.234375 16.15234375 C-33.15058594 15.53746094 -33.06679687 14.92257813 -32.98046875 14.2890625 C-32.32046875 14.2890625 -31.66046875 14.2890625 -30.98046875 14.2890625 C-30.65046875 12.9690625 -30.32046875 11.6490625 -29.98046875 10.2890625 C-29.32046875 10.2890625 -28.66046875 10.2890625 -27.98046875 10.2890625 C-27.98046875 9.2990625 -27.98046875 8.3090625 -27.98046875 7.2890625 C-27.32046875 7.2890625 -26.66046875 7.2890625 -25.98046875 7.2890625 C-25.93921875 6.7321875 -25.89796875 6.1753125 -25.85546875 5.6015625 C-24.51422197 2.05683886 -21.97122153 0.50221955 -18.98046875 -1.7109375 C-12.28300435 -3.94342563 -6.28484281 -3.05987093 0 0 Z " fill="#B63276" transform="translate(259.98046875,231.7109375)"/>
<path d="M0 0 C1.32 0 2.64 0 4 0 C4 15.18 4 30.36 4 46 C1.69 46 -0.62 46 -3 46 C-3.66 44.02 -4.32 42.04 -5 40 C-5.66 40 -6.32 40 -7 40 C-8.1875 36.75 -8.1875 36.75 -9 33 C-7.37593362 29.75186725 -6.4754765 29.15849217 -3 28 C-3.09539062 26.81921875 -3.19078125 25.6384375 -3.2890625 24.421875 C-3.40163471 22.86462609 -3.51358114 21.30733185 -3.625 19.75 C-3.68945312 18.97269531 -3.75390625 18.19539063 -3.8203125 17.39453125 C-4.30707097 10.27568856 -4.30707097 10.27568856 -2 7 C-1.01 7 -0.02 7 1 7 C1.33 5.02 1.66 3.04 2 1 C1.34 0.67 0.68 0.34 0 0 Z " fill="#AE2388" transform="translate(212,231)"/>
<path d="M0 0 C3.44856179 -0.48212903 6.57098637 -0.68685135 10 0 C13.65824258 3.37116077 15.53871148 8.07958911 16 13 C16.66 13 17.32 13 18 13 C18.69710731 14.28650706 19.38242876 15.57940665 20.0625 16.875 C20.63677734 17.95394531 20.63677734 17.95394531 21.22265625 19.0546875 C21.47917969 19.69664062 21.73570312 20.33859375 22 21 C21 23 21 23 19.46948242 24.81347656 C17.73049062 27.40101778 17.58251511 28.89350423 17.48828125 31.984375 C17.45283203 32.91894531 17.41738281 33.85351562 17.38085938 34.81640625 C17.35830078 35.78449219 17.33574219 36.75257813 17.3125 37.75 C17.27833984 38.73355469 17.24417969 39.71710938 17.20898438 40.73046875 C17.12664727 43.15353199 17.05745162 45.57623998 17 48 C16.67 48 16.34 48 16 48 C15.99742187 46.90042969 15.99484375 45.80085938 15.9921875 44.66796875 C15.80201869 34.85703758 14.49019586 28.33696408 9 20 C7.92151214 18.05042578 6.85879683 16.09203804 5.8125 14.125 C4.38626795 11.49256068 2.95997085 8.93860331 1.32421875 6.4296875 C0 4 0 4 0 0 Z " fill="#795BE1" transform="translate(126,229)"/>
<path d="M0 0 C2.64 0 5.28 0 8 0 C8 0.33 8 0.66 8 1 C6.02 1 4.04 1 2 1 C2.33 15.52 2.66 30.04 3 45 C5.31 45.33 7.62 45.66 10 46 C10 37.09 10 28.18 10 19 C10.99 19 11.98 19 13 19 C12.979375 17.948125 12.95875 16.89625 12.9375 15.8125 C12.98896802 12.67295096 13.26517187 10.03116604 14 7 C17.28788824 10.11016455 19.83735988 13.01618925 22 17 C21.360625 17.12375 20.72125 17.2475 20.0625 17.375 C19.381875 17.58125 18.70125 17.7875 18 18 C17.67 18.66 17.34 19.32 17 20 C16.34 20 15.68 20 15 20 C15 20.99 15 21.98 15 23 C15.66 23.33 16.32 23.66 17 24 C16.01 24 15.02 24 14 24 C13.34 23.01 12.68 22.02 12 21 C11.67 29.58 11.34 38.16 11 47 C7.37 47 3.74 47 0 47 C0 31.49 0 15.98 0 0 Z " fill="#B25FCD" transform="translate(175,230)"/>
<path d="M0 0 C4 1 4 1 5.75 3.375 C7 6 7 6 7 9 C9.15489775 7.06059202 10.40420193 5.33502263 11.9375 2.8125 C12.618125 1.884375 13.29875 0.95625 14 0 C15.32 0 16.64 0 18 0 C18 5.61 18 11.22 18 17 C16.68 17.33 15.36 17.66 14 18 C13.67 15.03 13.34 12.06 13 9 C12.01 10.98 11.02 12.96 10 15 C8.125 14.75 8.125 14.75 6 14 C4.75 11.9375 4.75 11.9375 4 10 C3.67 12.31 3.34 14.62 3 17 C2.01 17.33 1.02 17.66 0 18 C0 12.06 0 6.12 0 0 Z " fill="#515151" transform="translate(87,300)"/>
<path d="M0 0 C1.33998047 0.06960937 1.33998047 0.06960937 2.70703125 0.140625 C3.60808594 0.17671875 4.50914062 0.2128125 5.4375 0.25 C6.12457031 0.29640625 6.81164062 0.3428125 7.51953125 0.390625 C7.21260012 6.37578197 4.29042519 10.88955796 0.51953125 15.390625 C-0.14046875 15.390625 -0.80046875 15.390625 -1.48046875 15.390625 C-1.48046875 16.050625 -1.48046875 16.710625 -1.48046875 17.390625 C-2.14046875 17.390625 -2.80046875 17.390625 -3.48046875 17.390625 C-3.48046875 18.380625 -3.48046875 19.370625 -3.48046875 20.390625 C-4.14046875 20.390625 -4.80046875 20.390625 -5.48046875 20.390625 C-5.48046875 19.730625 -5.48046875 19.070625 -5.48046875 18.390625 C-6.14046875 18.720625 -6.80046875 19.050625 -7.48046875 19.390625 C-8.13601994 21.91795735 -8.13601994 21.91795735 -8.48046875 24.390625 C-9.47046875 24.720625 -10.46046875 25.050625 -11.48046875 25.390625 C-12.41112008 22.78480129 -12.62964282 21.74864276 -11.54296875 19.140625 C-11.19234375 18.563125 -10.84171875 17.985625 -10.48046875 17.390625 C-9.82046875 17.390625 -9.16046875 17.390625 -8.48046875 17.390625 C-8.20783203 16.05257812 -8.20783203 16.05257812 -7.9296875 14.6875 C-7.67832031 13.51703125 -7.42695313 12.3465625 -7.16796875 11.140625 C-6.92433594 9.98046875 -6.68070313 8.8203125 -6.4296875 7.625 C-4.39504161 0.69213254 -4.39504161 0.69213254 0 0 Z " fill="#7B46F2" transform="translate(161.48046875,228.609375)"/>
<path d="M0 0 C8.38785271 -0.83507383 14.48641103 1.38521493 22 5 C21.23596585 8.47153381 19.91813089 10.99770818 18 14 C15.78105868 13.50690193 13.91710633 12.95855317 11.875 11.9375 C7.61244313 10.5475358 3.44592142 10.84460857 -1 11 C-1.33 11.66 -1.66 12.32 -2 13 C-2 11.68 -2 10.36 -2 9 C1.465 8.505 1.465 8.505 5 8 C4.45773019 4.20411134 2.79872437 2.52788007 0 0 Z " fill="#6E74CC" transform="translate(100,229)"/>
<path d="M0 0 C3 1 3 1 4 2 C4.33 1.34 4.66 0.68 5 0 C9.875 1.875 9.875 1.875 11 3 C10.90968426 5.35694954 10.75311872 7.71153582 10.5625 10.0625 C10.46066406 11.35285156 10.35882813 12.64320313 10.25390625 13.97265625 C10.17011719 14.97167969 10.08632812 15.97070312 10 17 C9.01 17 8.02 17 7 17 C7 25.91 7 34.82 7 44 C4.69 44 2.38 44 0 44 C0 43.67 0 43.34 0 43 C1.65 43 3.3 43 5 43 C5 34.42 5 25.84 5 17 C4.34 17.33 3.68 17.66 3 18 C3.33 15.69 3.66 13.38 4 11 C3.34 11 2.68 11 2 11 C1.34 7.37 0.68 3.74 0 0 Z " fill="#9937C8" transform="translate(178,232)"/>
<path d="M0 0 C2.6015625 -0.29296875 2.6015625 -0.29296875 5.625 -0.1875 C7.12933594 -0.14689453 7.12933594 -0.14689453 8.6640625 -0.10546875 C9.43492187 -0.07066406 10.20578125 -0.03585937 11 0 C11.08071788 2.79224073 11.14035408 5.58216566 11.1875 8.375 C11.22520508 9.56609375 11.22520508 9.56609375 11.26367188 10.78125 C11.29004405 12.85586148 11.15486462 14.93100865 11 17 C7.31282562 19.45811625 5.35654296 19.31118164 1 19 C0.01 18.34 -0.98 17.68 -2 17 C-1.34 15.68 -0.68 14.36 0 13 C-0.66 12.34 -1.32 11.68 -2 11 C-2.46376812 3.69565217 -2.46376812 3.69565217 0 0 Z M4 2 C2.26352052 3.67488528 2.26352052 3.67488528 1 6 C1.70957237 8.73398135 1.70957237 8.73398135 3 11 C5.75641416 10.50243908 5.75641416 10.50243908 8 9 C8.04063832 7.33382885 8.042721 5.66611905 8 4 C6.68 3.34 5.36 2.68 4 2 Z M7 13 C5.02 13.33 3.04 13.66 1 14 C1.33 14.66 1.66 15.32 2 16 C3.65 16 5.3 16 7 16 C7 15.01 7 14.02 7 13 Z " fill="#4B4B4B" transform="translate(351,304)"/>
<path d="M0 0 C0.66 0.33 1.32 0.66 2 1 C1.360625 1.598125 0.72125 2.19625 0.0625 2.8125 C-2.20310389 4.90810337 -2.20310389 4.90810337 -3 8 C-3.66 8 -4.32 8 -5 8 C-5 8.99 -5 9.98 -5 11 C-5.66 11 -6.32 11 -7 11 C-7.33 12.32 -7.66 13.64 -8 15 C-8.66 15 -9.32 15 -10 15 C-10 18.63 -10 22.26 -10 26 C-9.01 26 -8.02 26 -7 26 C-7 28 -7 30 -7 32 C-6.01 31.34 -5.02 30.68 -4 30 C-3.34 30.33 -2.68 30.66 -2 31 C-2.17402344 30.30519531 -2.34804687 29.61039062 -2.52734375 28.89453125 C-3.05332633 25.67343131 -2.88327655 22.93090738 -2.5625 19.6875 C-2.46066406 18.61886719 -2.35882813 17.55023438 -2.25390625 16.44921875 C-2.17011719 15.64097656 -2.08632812 14.83273438 -2 14 C-1.34 14 -0.68 14 0 14 C-0.03480469 14.94101563 -0.06960937 15.88203125 -0.10546875 16.8515625 C-0.13253906 18.09679687 -0.15960938 19.34203125 -0.1875 20.625 C-0.22230469 21.85476562 -0.25710937 23.08453125 -0.29296875 24.3515625 C0.0212053 28.26407664 1.03093467 30.64070218 3 34 C0.03 34 -2.94 34 -6 34 C-5.24849977 37.27773504 -5.24849977 37.27773504 -2 39 C-3.98 39.495 -3.98 39.495 -6 40 C-6 39.34 -6 38.68 -6 38 C-6.66 38 -7.32 38 -8 38 C-12.54219977 28.87334745 -13.9436398 22.35112687 -10.9609375 12.5 C-9.78655292 9.44469052 -8.39407786 7.23962123 -6 5 C-5.34 5 -4.68 5 -4 5 C-4 4.34 -4 3.68 -4 3 C-2.68 2.67 -1.36 2.34 0 2 C0 1.34 0 0.68 0 0 Z " fill="#B64582" transform="translate(237,231)"/>
<path d="M0 0 C0.66 0.33 1.32 0.66 2 1 C1.67 1.66 1.34 2.32 1 3 C1.66 3 2.32 3 3 3 C3 4.65 3 6.3 3 8 C2.01 8 1.02 8 0 8 C0 13.61 0 19.22 0 25 C-1.32 25.33 -2.64 25.66 -4 26 C-4.66 26.33 -5.32 26.66 -6 27 C-5.67 25.02 -5.34 23.04 -5 21 C-5.99 21 -6.98 21 -8 21 C-9.03159626 17.90521121 -8.97482862 16.47368607 -8.5625 13.3125 C-8.46066406 12.50425781 -8.35882813 11.69601563 -8.25390625 10.86328125 C-8.17011719 10.24839844 -8.08632812 9.63351563 -8 9 C-7.34 9 -6.68 9 -6 9 C-5.67 7.68 -5.34 6.36 -5 5 C-4.34 5 -3.68 5 -3 5 C-3 4.01 -3 3.02 -3 2 C-2.01 2 -1.02 2 0 2 C0 1.34 0 0.68 0 0 Z " fill="#B31C6C" transform="translate(235,237)"/>
<path d="M0 0 C0.66 0.33 1.32 0.66 2 1 C2 1.66 2 2.32 2 3 C2.66 3 3.32 3 4 3 C6.60018816 6.90028225 6.15085514 10.47434569 6 15 C5.34 15.33 4.68 15.66 4 16 C3.45627049 12.94152152 3 10.11227195 3 7 C-0.04928156 8.06530151 -0.04928156 8.06530151 -3 10 C-3.97474816 13.08961458 -3.97474816 13.08961458 -4 16 C-5.32 15.67 -6.64 15.34 -8 15 C-7.67 13.35 -7.34 11.7 -7 10 C-10.96 8.68 -14.92 7.36 -19 6 C-19 5.67 -19 5.34 -19 5 C-16.69 5 -14.38 5 -12 5 C-12 5.66 -12 6.32 -12 7 C-11.01 6.34 -10.02 5.68 -9 5 C-9.185625 4.38125 -9.37125 3.7625 -9.5625 3.125 C-10 1 -10 1 -9 -1 C-5.20720018 -2.26426661 -3.65934648 -1.40145184 0 0 Z " fill="#6665CE" transform="translate(118,252)"/>
<path d="M0 0 C2.97 0 5.94 0 9 0 C10 1 10 1 10.12025452 2.90455627 C10.1169236 4.15365028 10.1169236 4.15365028 10.11352539 5.42797852 C10.11344986 6.36887833 10.11337433 7.30977814 10.11329651 8.27919006 C10.10813522 9.30209641 10.10297394 10.32500275 10.09765625 11.37890625 C10.0962413 12.42070541 10.09482635 13.46250458 10.09336853 14.53587341 C10.0877508 17.87811094 10.0751953 21.22028257 10.0625 24.5625 C10.05748728 26.82226466 10.05292398 29.08203037 10.04882812 31.34179688 C10.03777561 36.89455391 10.02102024 42.44727225 10 48 C9.67 48 9.34 48 9 48 C9 32.82 9 17.64 9 2 C8.01 2.495 8.01 2.495 7 3 C6.34227572 6.02934491 6.34227572 6.02934491 6 9 C5.01 9.33 4.02 9.66 3 10 C2.11978631 16.71162938 1.88618045 23.23405981 2 30 C1.34 30 0.68 30 0 30 C0 20.1 0 10.2 0 0 Z " fill="#AD4790" transform="translate(207,229)"/>
<path d="M0 0 C0.99 0 1.98 0 3 0 C3 6.27 3 12.54 3 19 C-6.26829268 19.6097561 -6.26829268 19.6097561 -9.625 16.8125 C-11.10506853 13.7850871 -11.59304341 12.304099 -11 9 C-10 6.6875 -10 6.6875 -8 5 C-5.24543899 4.65771727 -2.79409479 4.81678067 0 5 C0 3.35 0 1.7 0 0 Z M-4 7 C-5.66621425 8.1645201 -5.66621425 8.1645201 -7 10 C-6.76956136 12.65466049 -6.76956136 12.65466049 -6 15 C-4.10820797 15.6814823 -4.10820797 15.6814823 -2 16 C-1.34 15.34 -0.68 14.68 0 14 C-0.09111938 11.46048456 -0.09111938 11.46048456 -1 9 C-1.99 8.34 -2.98 7.68 -4 7 Z " fill="#393939" transform="translate(139,299)"/>
<path d="M0 0 C0.99 0.33 1.98 0.66 3 1 C3 2.32 3 3.64 3 5 C5.97 5.495 5.97 5.495 9 6 C8.938125 7.010625 8.87625 8.02125 8.8125 9.0625 C9.02642827 13.55499372 10.04613532 16.01085961 12 20 C12.37125 19.0409375 12.37125 19.0409375 12.75 18.0625 C14 16 14 16 16.125 15.25 C17.053125 15.12625 17.053125 15.12625 18 15 C18.33 16.32 18.66 17.64 19 19 C18.34 19 17.68 19 17 19 C14.85862846 24.30990503 14.57892937 29.23295407 14.375 34.875 C14.33632812 35.75414062 14.29765625 36.63328125 14.2578125 37.5390625 C14.16418966 39.69238793 14.08103541 41.84616414 14 44 C13.67 44 13.34 44 13 44 C12.99742187 42.90042969 12.99484375 41.80085938 12.9921875 40.66796875 C12.8020557 30.85894708 11.4925981 24.33403453 6 16 C4.89987008 14.03012032 3.81625417 12.05091994 2.75 10.0625 C2.03070313 8.74958984 2.03070313 8.74958984 1.296875 7.41015625 C0.156762 5.29133179 -0.93810503 3.15885252 -2 1 C-1.34 0.67 -0.68 0.34 0 0 Z " fill="#8270DA" transform="translate(129,233)"/>
<path d="M0 0 C1.875 0.3203125 1.875 0.3203125 3.875 1.5078125 C4.875 3.3203125 4.875 3.3203125 4.875 8.3203125 C1.575 8.3203125 -1.725 8.3203125 -5.125 8.3203125 C-4.795 8.9803125 -4.465 9.6403125 -4.125 10.3203125 C-1.485 9.9903125 1.155 9.6603125 3.875 9.3203125 C3 13.1953125 3 13.1953125 1.875 14.3203125 C-4.31575145 14.77888668 -4.31575145 14.77888668 -7 13.2578125 C-8.73226153 10.27447319 -9.00488224 7.74366876 -9.125 4.3203125 C-7.3701882 -0.24219819 -4.42033488 -0.24376847 0 0 Z M-3.125 2.3203125 C-4.115 3.8053125 -4.115 3.8053125 -5.125 5.3203125 C-3.145 5.3203125 -1.165 5.3203125 0.875 5.3203125 C0.215 4.3303125 -0.445 3.3403125 -1.125 2.3203125 C-1.785 2.3203125 -2.445 2.3203125 -3.125 2.3203125 Z " fill="#4D4D4D" transform="translate(119.125,303.6796875)"/>
<path d="M0 0 C7.38804781 -0.36334661 7.38804781 -0.36334661 10 1.1875 C11 3 11 3 11 8 C7.7 8 4.4 8 1 8 C1 8.66 1 9.32 1 10 C4.19902639 10.08886184 6.92677456 9.91058531 10 9 C9.125 12.875 9.125 12.875 8 14 C4.6875 14.375 4.6875 14.375 1 14 C-1.5 11.9375 -1.5 11.9375 -3 9 C-2.75 5.1875 -2.75 5.1875 -2 2 C-1.34 2 -0.68 2 0 2 C0 1.34 0 0.68 0 0 Z M3 2 C3 2.66 3 3.32 3 4 C2.01 4.495 2.01 4.495 1 5 C3.31 5 5.62 5 8 5 C7.34 4.67 6.68 4.34 6 4 C6 3.34 6 2.68 6 2 C5.01 2 4.02 2 3 2 Z " fill="#545454" transform="translate(380,304)"/>
<path d="M0 0 C7.38804781 -0.36334661 7.38804781 -0.36334661 10 1.1875 C11 3 11 3 11 8 C7.7 8 4.4 8 1 8 C1 8.66 1 9.32 1 10 C4.19902639 10.08886184 6.92677456 9.91058531 10 9 C9.125 12.875 9.125 12.875 8 14 C1.76923077 14.46153846 1.76923077 14.46153846 -0.875 12.875 C-2.43619343 10.27301095 -2.74948866 8.00613607 -3 5 C-2.67 4.01 -2.34 3.02 -2 2 C-1.34 2 -0.68 2 0 2 C0 1.34 0 0.68 0 0 Z M3 2 C2.01 3.485 2.01 3.485 1 5 C2.98 5 4.96 5 7 5 C6.34 4.01 5.68 3.02 5 2 C4.34 2 3.68 2 3 2 Z " fill="#3D3D3D" transform="translate(231,304)"/>
<path d="M0 0 C1.45742463 -0.08096803 2.91612807 -0.13917774 4.375 -0.1875 C5.18710938 -0.22230469 5.99921875 -0.25710938 6.8359375 -0.29296875 C7.55007812 -0.19628906 8.26421875 -0.09960938 9 0 C11.28062828 3.42094242 11.21925007 4.68187222 11.125 8.6875 C11.10695312 9.68136719 11.08890625 10.67523438 11.0703125 11.69921875 C11.03550781 12.83810547 11.03550781 12.83810547 11 14 C9.18757948 14.02687279 7.37504767 14.04633715 5.5625 14.0625 C4.55316406 14.07410156 3.54382813 14.08570313 2.50390625 14.09765625 C0 14 0 14 -1 13 C-1.1875 10.0625 -1.1875 10.0625 -1 7 C1.35953094 4.64046906 2.77895617 4.50858587 6 4 C6 3.34 6 2.68 6 2 C5.01 2.66 4.02 3.32 3 4 C0.8125 3.625 0.8125 3.625 -1 3 C-0.67 2.01 -0.34 1.02 0 0 Z M2 8 C2.33 8.99 2.66 9.98 3 11 C4.97536745 10.65213292 4.97536745 10.65213292 7 10 C7.33 9.34 7.66 8.68 8 8 C6.02 8 4.04 8 2 8 Z " fill="#5C5C5C" transform="translate(176,304)"/>
<path d="M0 0 C0.95003906 0.08765625 1.90007812 0.1753125 2.87890625 0.265625 C5.4375 0.75 5.4375 0.75 8.4375 2.75 C7.4475 2.75 6.4575 2.75 5.4375 2.75 C5.4375 3.513125 5.4375 4.27625 5.4375 5.0625 C5.4375 6.95833333 5.4375 8.85416667 5.4375 10.75 C4.4475 10.75 3.4575 10.75 2.4375 10.75 C2.4375 10.09 2.4375 9.43 2.4375 8.75 C0.643125 8.811875 0.643125 8.811875 -1.1875 8.875 C-4.98579953 8.88851708 -8.01225618 8.17009753 -11.5625 6.75 C-11.5625 5.76 -11.5625 4.77 -11.5625 3.75 C-10.9025 3.75 -10.2425 3.75 -9.5625 3.75 C-9.5625 3.09 -9.5625 2.43 -9.5625 1.75 C-6.19089885 -0.32237896 -3.89980154 -0.40324478 0 0 Z " fill="#5769C1" transform="translate(103.5625,248.25)"/>
<path d="M0 0 C0.99 0 1.98 0 3 0 C3 1.65 3 3.3 3 5 C5.64 5 8.28 5 11 5 C12.38226016 7.76452033 12.09525387 10.0461363 12.0625 13.125 C12.05347656 14.22070312 12.04445313 15.31640625 12.03515625 16.4453125 C12.02355469 17.28835938 12.01195312 18.13140625 12 19 C11.01 19 10.02 19 9 19 C8.67 15.7 8.34 12.4 8 9 C7.01 9 6.02 9 5 9 C3.41727399 10.58272601 3.65264253 12.38034003 3.4375 14.5625 C3.35371094 15.38878906 3.26992188 16.21507812 3.18359375 17.06640625 C3.12300781 17.70449219 3.06242187 18.34257812 3 19 C2.01 19 1.02 19 0 19 C0 12.73 0 6.46 0 0 Z " fill="#323232" transform="translate(265,299)"/>
<path d="M0 0 C1.875 0.3828125 1.875 0.3828125 3.875 2.0078125 C5.15792178 5.05475172 5.28495912 7.10313951 4.875 10.3828125 C3.8125 12.7578125 3.8125 12.7578125 1.875 14.3828125 C-2.07754396 14.95772799 -4.20441451 14.99653616 -7.5625 12.7578125 C-9.58432313 9.68464135 -9.65255517 8.00033369 -9.125 4.3828125 C-7.23887124 -0.09674329 -4.45999274 -0.24595548 0 0 Z M-3.125 2.3828125 C-4.7733633 4.13525497 -4.7733633 4.13525497 -6.125 6.3828125 C-5.90782648 8.59081778 -5.90782648 8.59081778 -5.125 10.3828125 C-3.28799211 11.15523519 -3.28799211 11.15523519 -1.125 11.3828125 C0.79166667 10.29947917 0.79166667 10.29947917 1.875 8.3828125 C1.95142709 6.27131605 1.95142709 6.27131605 0.875 4.3828125 C-1.1087767 3.09844516 -1.1087767 3.09844516 -3.125 2.3828125 Z " fill="#3C3C3C" transform="translate(339.125,303.6171875)"/>
<path d="M0 0 C0.38482319 1.3193938 0.69830934 2.65915264 1 4 C1.15339844 4.61746094 1.30679688 5.23492187 1.46484375 5.87109375 C1.88813556 8.00367819 2.13739372 9.82746178 2 12 C-0.125 15.0625 -0.125 15.0625 -3 17 C-5.8125 16.8125 -5.8125 16.8125 -8 16 C-7.67 15.01 -7.34 14.02 -7 13 C-7.99 12.67 -8.98 12.34 -10 12 C-9.67 11.34 -9.34 10.68 -9 10 C-8.34 10 -7.68 10 -7 10 C-7.103125 9.071875 -7.20625 8.14375 -7.3125 7.1875 C-7.209375 6.135625 -7.10625 5.08375 -7 4 C-4.625 2.1875 -4.625 2.1875 -2 1 C-1.34 0.67 -0.68 0.34 0 0 Z " fill="#6967D3" transform="translate(121,258)"/>
<path d="M0 0 C0 0.66 0 1.32 0 2 C0.66 2 1.32 2 2 2 C2.08131463 3.43655854 2.13933559 4.8744483 2.1875 6.3125 C2.22230469 7.11300781 2.25710938 7.91351563 2.29296875 8.73828125 C2 11 2 11 0.70703125 12.76953125 C-2.12837931 14.81336266 -4.63509765 14.36052525 -8 14 C-9.9375 13 -9.9375 13 -11 11 C-11.52673518 7.43897344 -11.62932095 4.2586419 -10 1 C-6.72032242 -0.63983879 -3.62861311 -0.17845638 0 0 Z M-5 2 C-6.66621425 3.1645201 -6.66621425 3.1645201 -8 5 C-7.76956136 7.65466049 -7.76956136 7.65466049 -7 10 C-5.10820797 10.6814823 -5.10820797 10.6814823 -3 11 C-0.71271266 9.16116119 -0.71271266 9.16116119 -0.875 6.375 C-0.91625 5.59125 -0.9575 4.8075 -1 4 C-2.32 3.34 -3.64 2.68 -5 2 Z " fill="#424242" transform="translate(312,304)"/>
<path d="M0 0 C8.49609375 -0.09765625 8.49609375 -0.09765625 11 0 C12 1 12 1 12.09765625 3.94140625 C12.08605469 5.13636719 12.07445312 6.33132813 12.0625 7.5625 C12.05347656 8.76003906 12.04445313 9.95757812 12.03515625 11.19140625 C12.02355469 12.11824219 12.01195312 13.04507812 12 14 C11.01 14 10.02 14 9 14 C8.67 10.7 8.34 7.4 8 4 C7.01 4 6.02 4 5 4 C4.67 6.97 4.34 9.94 4 13 C2.68 13.33 1.36 13.66 0 14 C0 9.38 0 4.76 0 0 Z " fill="#373737" transform="translate(283,304)"/>
<path d="M0 0 C2.97 0 5.94 0 9 0 C9 1.32 9 2.64 9 4 C7.35 3.67 5.7 3.34 4 3 C3.67 3.66 3.34 4.32 3 5 C4.175625 5.2165625 4.175625 5.2165625 5.375 5.4375 C8 6 8 6 10 7 C10.125 9.375 10.125 9.375 10 12 C8 14 8 14 6.0546875 14.1953125 C4.03645833 14.13020833 2.01822917 14.06510417 0 14 C-0.33 12.35 -0.66 10.7 -1 9 C1.31 9.33 3.62 9.66 6 10 C6 9.67 6 9.34 6 9 C4.02 8.34 2.04 7.68 0 7 C-1.125 2.25 -1.125 2.25 0 0 Z " fill="#3F3F3F" transform="translate(397,304)"/>
<path d="M0 0 C2.64 0 5.28 0 8 0 C8 0.33 8 0.66 8 1 C6.02 1 4.04 1 2 1 C2.33 16.18 2.66 31.36 3 47 C2.01 47 1.02 47 0 47 C0 31.49 0 15.98 0 0 Z " fill="#B27FDD" transform="translate(175,230)"/>
<path d="M0 0 C2.01822917 0.06510417 4.03645833 0.13020833 6.0546875 0.1953125 C6.7146875 1.5153125 7.3746875 2.8353125 8.0546875 4.1953125 C3.3046875 3.3203125 3.3046875 3.3203125 1.0546875 2.1953125 C1.0546875 2.8553125 1.0546875 3.5153125 1.0546875 4.1953125 C0.3946875 4.1953125 -0.2653125 4.1953125 -0.9453125 4.1953125 C-0.2853125 6.1753125 0.3746875 8.1553125 1.0546875 10.1953125 C4.5196875 9.7003125 4.5196875 9.7003125 8.0546875 9.1953125 C7.1796875 13.0703125 7.1796875 13.0703125 6.0546875 14.1953125 C2.7421875 14.5703125 2.7421875 14.5703125 -0.9453125 14.1953125 C-3.4453125 12.1328125 -3.4453125 12.1328125 -4.9453125 9.1953125 C-4.64943107 0.46681035 -4.64943107 0.46681035 0 0 Z " fill="#4C4C4C" transform="translate(161.9453125,303.8046875)"/>
<path d="M0 0 C0 0.66 0 1.32 0 2 C0.66 2 1.32 2 2 2 C2 2.66 2 3.32 2 4 C0.35 4 -1.3 4 -3 4 C-3 3.34 -3 2.68 -3 2 C-4.65 2.66 -6.3 3.32 -8 4 C-7.34 5.98 -6.68 7.96 -6 10 C-3.36 9.67 -0.72 9.34 2 9 C0.125 12.875 0.125 12.875 -1 14 C-7.27906977 14.58139535 -7.27906977 14.58139535 -9.9375 12.4375 C-11.39343329 9.09741776 -11.3931463 6.60384106 -11 3 C-8.76467814 -1.3309361 -4.26119511 -0.20956697 0 0 Z " fill="#383838" transform="translate(258,304)"/>
<path d="M0 0 C0.90492188 0.02320313 1.80984375 0.04640625 2.7421875 0.0703125 C4.10730469 0.09738281 4.10730469 0.09738281 5.5 0.125 C6.19867188 0.14820313 6.89734375 0.17140625 7.6171875 0.1953125 C7.18921548 5.90160604 4.77372798 9.60609866 1.6171875 14.1953125 C-0.4296875 10.4765625 -0.4296875 10.4765625 -0.0078125 7.9453125 C0.1984375 7.3678125 0.4046875 6.7903125 0.6171875 6.1953125 C-1.0328125 6.1953125 -2.6828125 6.1953125 -4.3828125 6.1953125 C-4.3828125 6.8553125 -4.3828125 7.5153125 -4.3828125 8.1953125 C-5.0428125 8.1953125 -5.7028125 8.1953125 -6.3828125 8.1953125 C-3.98807566 0.32689145 -3.98807566 0.32689145 0 0 Z " fill="#8858EC" transform="translate(161.3828125,228.8046875)"/>
<path d="M0 0 C2.29296875 -0.25 2.29296875 -0.25 5 0 C6.80078125 1.75 6.80078125 1.75 8.3125 4 C8.82425781 4.7425 9.33601562 5.485 9.86328125 6.25 C10.23839844 6.8275 10.61351562 7.405 11 8 C10.34 8 9.68 8 9 8 C8.67 9.32 8.34 10.64 8 12 C8 10.02 8 8.04 8 6 C6.68 6.33 5.36 6.66 4 7 C4.33 8.32 4.66 9.64 5 11 C3.35 11.33 1.7 11.66 0 12 C-3 6.375 -3 6.375 -3 3 C-2.34 3 -1.68 3 -1 3 C-0.67 2.01 -0.34 1.02 0 0 Z " fill="#A736B1" transform="translate(193,247)"/>
<path d="M0 0 C2.9719385 1.12451727 5.33440687 2.22293791 8 4 C7.6999825 7.50020422 7.04266259 8.94904191 4.75 11.6875 C0.20667188 15.50802592 -3.10755743 16.2740671 -9 16 C-8.67 15.34 -8.34 14.68 -8 14 C-6.02 14 -4.04 14 -2 14 C-2 13.34 -2 12.68 -2 12 C-1.01 12 -0.02 12 1 12 C1 11.01 1 10.02 1 9 C2.32 9 3.64 9 5 9 C4.67 8.01 4.34 7.02 4 6 C0.37 6.33 -3.26 6.66 -7 7 C-4.66666667 4.66666667 -2.33333333 2.33333333 0 0 Z " fill="#B85A90" transform="translate(259,261)"/>
<path d="M0 0 C4.95 0 9.9 0 15 0 C14.67 0.99 14.34 1.98 14 3 C12.35 3 10.7 3 9 3 C9 7.62 9 12.24 9 17 C8.01 17.33 7.02 17.66 6 18 C6 13.05 6 8.1 6 3 C4.02 3 2.04 3 0 3 C0 2.01 0 1.02 0 0 Z " fill="#3E3E3E" transform="translate(212,300)"/>
<path d="M0 0 C1.32 0 2.64 0 4 0 C4 5.61 4 11.22 4 17 C3.01 17 2.02 17 1 17 C0.67 13.7 0.34 10.4 0 7 C-0.99 7 -1.98 7 -3 7 C-2.25 2.25 -2.25 2.25 0 0 Z " fill="#3C3C3C" transform="translate(101,300)"/>
<path d="M0 0 C0.99 0 1.98 0 3 0 C3 5.28 3 10.56 3 16 C3.99 16 4.98 16 6 16 C6 16.99 6 17.98 6 19 C4.33388095 19.042721 2.66617115 19.04063832 1 19 C0 18 0 18 -0.11352539 16.23413086 C-0.10828857 15.48526611 -0.10305176 14.73640137 -0.09765625 13.96484375 C-0.09443359 13.15595703 -0.09121094 12.34707031 -0.08789062 11.51367188 C-0.07951172 10.66353516 -0.07113281 9.81339844 -0.0625 8.9375 C-0.05798828 8.08349609 -0.05347656 7.22949219 -0.04882812 6.34960938 C-0.03700373 4.23304337 -0.01906769 2.11651315 0 0 Z " fill="#3F3F3F" transform="translate(320,299)"/>
<path d="M0 0 C2 2 2 2 2 5 C2.5775 4.505 3.155 4.01 3.75 3.5 C6 2 6 2 10 2 C10 5.63 10 9.26 10 13 C10.66 13.33 11.32 13.66 12 14 C11.01 14 10.02 14 9 14 C8.67 11.03 8.34 8.06 8 5 C7.01 6.98 6.02 8.96 5 11 C3.125 10.875 3.125 10.875 1 10 C-0.40666215 6.98572397 -1.14845728 4.94022947 -0.625 1.625 C-0.41875 1.08875 -0.2125 0.5525 0 0 Z " fill="#525252" transform="translate(92,304)"/>
<path d="M0 0 C0.99 0 1.98 0 3 0 C3 5.28 3 10.56 3 16 C3.99 16 4.98 16 6 16 C6 16.99 6 17.98 6 19 C4.35 19 2.7 19 1 19 C-0.65497356 15.69005287 -0.10084335 12.00877 -0.0625 8.375 C-0.05798828 7.57320313 -0.05347656 6.77140625 -0.04882812 5.9453125 C-0.03703168 3.96350994 -0.01909605 1.98174567 0 0 Z " fill="#343434" transform="translate(193,299)"/>
<path d="M0 0 C2.875 0.25 2.875 0.25 6 1 C7.1875 2.9375 7.1875 2.9375 8 5 C8.99 5.66 9.98 6.32 11 7 C11.1875 9.625 11.1875 9.625 11 12 C11.66 12 12.32 12 13 12 C15 15 15 15 15 18 C14.34 18 13.68 18 13 18 C11.08307133 15.78724901 9.28028372 13.56850904 7.5 11.25 C7.00113281 10.61578125 6.50226563 9.9815625 5.98828125 9.328125 C3.64229458 6.30916092 1.63750822 3.47068158 0 0 Z " fill="#B049A1" transform="translate(194,259)"/>
<path d="M0 0 C4.38889325 0.66498383 7.9811485 2.18757677 12 4 C8.46588679 6.12046792 5.05606165 6.53199289 1 7 C1 7.99 1 8.98 1 10 C-0.65 9.67 -2.3 9.34 -4 9 C-2.80100302 5.9168649 -1.52299523 2.93720508 0 0 Z " fill="#6B84C1" transform="translate(89,263)"/>
<path d="M0 0 C-0.67170806 3.8063457 -1.72746564 7.35206816 -3 11 C-3.66 11 -4.32 11 -5 11 C-5.33 11.99 -5.66 12.98 -6 14 C-8 12 -8 12 -8.4375 8.6875 C-8 5 -8 5 -5.6875 2.0625 C-3 0 -3 0 0 0 Z " fill="#4A6CBC" transform="translate(96,238)"/>
<path d="M0 0 C0.33 1.32 0.66 2.64 1 4 C0.34 4 -0.32 4 -1 4 C-3.14137154 9.30990503 -3.42107063 14.23295407 -3.625 19.875 C-3.66367188 20.75414062 -3.70234375 21.63328125 -3.7421875 22.5390625 C-3.83581034 24.69238793 -3.91896459 26.84616414 -4 29 C-4.33 29 -4.66 29 -5 29 C-5.06058594 27.84242188 -5.12117187 26.68484375 -5.18359375 25.4921875 C-5.26805502 23.95311543 -5.35270018 22.41405345 -5.4375 20.875 C-5.47681641 20.11445313 -5.51613281 19.35390625 -5.55664062 18.5703125 C-5.79509002 14.31490797 -6.20230237 10.19629174 -7 6 C-6.34 6 -5.68 6 -5 6 C-5.33 5.01 -5.66 4.02 -6 3 C-2.25 0 -2.25 0 0 0 Z " fill="#9478EA" transform="translate(147,248)"/>
<path d="M0 0 C0.33 0 0.66 0 1 0 C1 2.31 1 4.62 1 7 C0.34 7 -0.32 7 -1 7 C-1.33 7.66 -1.66 8.32 -2 9 C-2.99 9 -3.98 9 -5 9 C-5.4021875 10.2065625 -5.4021875 10.2065625 -5.8125 11.4375 C-6.204375 12.283125 -6.59625 13.12875 -7 14 C-7.99 14.33 -8.98 14.66 -10 15 C-11 14 -11 14 -11.25 11.6875 C-10.94110412 8.36686934 -10.56323176 7.1627268 -8 5 C-5.24543899 4.65771727 -2.79409479 4.81678067 0 5 C0 3.35 0 1.7 0 0 Z " fill="#636363" transform="translate(139,299)"/>
<path d="M0 0 C0 0.99 0 1.98 0 3 C-1.32 3 -2.64 3 -4 3 C-4 3.99 -4 4.98 -4 6 C-4.99 6 -5.98 6 -7 6 C-7 6.66 -7 7.32 -7 8 C-8.98 8 -10.96 8 -13 8 C-12.67 7.01 -12.34 6.02 -12 5 C-12 5.66 -12 6.32 -12 7 C-11.01 7 -10.02 7 -9 7 C-9.34444881 4.52733235 -9.34444881 4.52733235 -10 2 C-10.66 1.67 -11.32 1.34 -12 1 C-7.58774263 -0.47075246 -4.51718381 -1.36884358 0 0 Z " fill="#B31A6D" transform="translate(264,267)"/>
<path d="M0 0 C2.64 0 5.28 0 8 0 C8 0.66 8 1.32 8 2 C8.66 2 9.32 2 10 2 C9.67 2.66 9.34 3.32 9 4 C8.34 3.67 7.68 3.34 7 3 C6.67 3.99 6.34 4.98 6 6 C4.68 5.01 3.36 4.02 2 3 C2.26296875 3.81984375 2.5259375 4.6396875 2.796875 5.484375 C3.26867187 7.10085937 3.26867187 7.10085937 3.75 8.75 C4.07484375 9.81734375 4.3996875 10.8846875 4.734375 11.984375 C5 15 5 15 3.078125 17.390625 C2.39234375 17.92171875 1.7065625 18.4528125 1 19 C1.01160156 17.79601562 1.02320313 16.59203125 1.03515625 15.3515625 C1.04453434 13.77604321 1.05363452 12.20052225 1.0625 10.625 C1.07087891 9.8309375 1.07925781 9.036875 1.08789062 8.21875 C1.23040151 3.97607778 1.23040151 3.97607778 0 0 Z " fill="#9434DC" transform="translate(176,229)"/>
<path d="M0 0 C2.97 0 5.94 0 9 0 C9 4.95 9 9.9 9 15 C7 14 7 14 6 11 C5.96045766 8.66700175 5.95598268 6.33291811 6 4 C4.02 3.34 2.04 2.68 0 2 C0 1.34 0 0.68 0 0 Z " fill="#111111" transform="translate(353,304)"/>
<path d="M0 0 C2.01822917 0.06510417 4.03645833 0.13020833 6.0546875 0.1953125 C5.4359375 0.4840625 4.8171875 0.7728125 4.1796875 1.0703125 C1.92142985 2.13251292 1.92142985 2.13251292 0.0546875 4.1953125 C2.0346875 4.1953125 4.0146875 4.1953125 6.0546875 4.1953125 C6.0546875 4.8553125 6.0546875 5.5153125 6.0546875 6.1953125 C4.9409375 6.2778125 3.8271875 6.3603125 2.6796875 6.4453125 C-1.00285194 6.77405037 -1.00285194 6.77405037 -2.3828125 9.2578125 C-2.66125 10.216875 -2.66125 10.216875 -2.9453125 11.1953125 C-3.6053125 10.5353125 -4.2653125 9.8753125 -4.9453125 9.1953125 C-4.31948182 0.43368291 -4.31948182 0.43368291 0 0 Z " fill="#585858" transform="translate(114.9453125,303.8046875)"/>
<path d="M0 0 C2.64 0.33 5.28 0.66 8 1 C8 1.99 8 2.98 8 4 C8.99 4.33 9.98 4.66 11 5 C10.67 6.32 10.34 7.64 10 9 C8.35 9 6.7 9 5 9 C4.690625 8.360625 4.38125 7.72125 4.0625 7.0625 C3.1654837 5.06389179 3.1654837 5.06389179 2 4 C1.34 4 0.68 4 0 4 C0 2.68 0 1.36 0 0 Z M6 4 C6.66 4.66 7.32 5.32 8 6 C8 5.34 8 4.68 8 4 C7.34 4 6.68 4 6 4 Z " fill="#6D56DC" transform="translate(127,230)"/>
<path d="M0 0 C1.32 0 2.64 0 4 0 C4.125 2.375 4.125 2.375 4 5 C2 7 2 7 0.0546875 7.1953125 C-1.96354167 7.13020833 -3.98177083 7.06510417 -6 7 C-6.33 5.35 -6.66 3.7 -7 2 C-4.69 2.33 -2.38 2.66 0 3 C0 2.01 0 1.02 0 0 Z " fill="#424242" transform="translate(403,311)"/>
<path d="M0 0 C5.42857143 -0.36190476 5.42857143 -0.36190476 7.875 1.1875 C9 3 9 3 9 8 C5.37 8 1.74 8 -2 8 C-2 7.34 -2 6.68 -2 6 C0.64 6 3.28 6 6 6 C6 5.34 6 4.68 6 4 C5.34 4 4.68 4 4 4 C4 3.34 4 2.68 4 2 C2.68 1.67 1.36 1.34 0 1 C0 0.67 0 0.34 0 0 Z " fill="#252525" transform="translate(382,304)"/>
<path d="M0 0 C0.66 0.66 1.32 1.32 2 2 C1.34 2 0.68 2 0 2 C0 1.34 0 0.68 0 0 Z M-1 2 C1 5 1 5 1 7 C0.34 7 -0.32 7 -1 7 C-1 8.98 -1 10.96 -1 13 C-1.99 13 -2.98 13 -4 13 C-3.67 11.35 -3.34 9.7 -3 8 C-6.96 6.68 -10.92 5.36 -15 4 C-15 3.67 -15 3.34 -15 3 C-12.69 3 -10.38 3 -8 3 C-8 3.66 -8 4.32 -8 5 C-4.535 4.505 -4.535 4.505 -1 4 C-1 3.34 -1 2.68 -1 2 Z " fill="#7A7CD6" transform="translate(114,254)"/>
<path d="M0 0 C1.32 0 2.64 0 4 0 C5.38226016 2.76452033 5.09525387 5.0461363 5.0625 8.125 C5.05347656 9.22070312 5.04445313 10.31640625 5.03515625 11.4453125 C5.02355469 12.28835938 5.01195312 13.13140625 5 14 C4.01 14 3.02 14 2 14 C1.34 9.38 0.68 4.76 0 0 Z " fill="#535353" transform="translate(272,304)"/>
<path d="M0 0 C0.66 0 1.32 0 2 0 C2 0.66 2 1.32 2 2 C2.66 2.33 3.32 2.66 4 3 C3.649375 3.763125 3.29875 4.52625 2.9375 5.3125 C1.67639116 8.04759379 1.67639116 8.04759379 3 11 C2.34 11 1.68 11 1 11 C0.67 11.66 0.34 12.32 0 13 C-2.60704898 10.39295102 -2.23905333 8.52661759 -2.265625 4.97265625 C-2 3 -2 3 0 0 Z " fill="#3A3A3A" transform="translate(351,304)"/>
<path d="M0 0 C1.27875 -0.061875 2.5575 -0.12375 3.875 -0.1875 C4.95394531 -0.23970703 4.95394531 -0.23970703 6.0546875 -0.29296875 C6.69664062 -0.19628906 7.33859375 -0.09960938 8 0 C8.66 0.99 9.32 1.98 10 3 C9.01 4.485 9.01 4.485 8 6 C6.0546875 6.29296875 6.0546875 6.29296875 3.875 6.1875 C2.59625 6.125625 1.3175 6.06375 0 6 C0 5.34 0 4.68 0 4 C-0.66 4 -1.32 4 -2 4 C-2 3.34 -2 2.68 -2 2 C-1.34 2 -0.68 2 0 2 C0 1.34 0 0.68 0 0 Z M3 2 C2.01 3.485 2.01 3.485 1 5 C2.98 5 4.96 5 7 5 C6.34 4.01 5.68 3.02 5 2 C4.34 2 3.68 2 3 2 Z " fill="#646464" transform="translate(231,304)"/>
<path d="M0 0 C0 0.66 0 1.32 0 2 C0.66 2 1.32 2 2 2 C1.67 2.66 1.34 3.32 1 4 C0.071875 3.79375 -0.85625 3.5875 -1.8125 3.375 C-5.15173402 2.63307034 -5.15173402 2.63307034 -8 5 C-8.33 4.67 -8.66 4.34 -9 4 C-9.33 6.31 -9.66 8.62 -10 11 C-10.33 11 -10.66 11 -11 11 C-11.35820896 3.71641791 -11.35820896 3.71641791 -10 1 C-6.72032242 -0.63983879 -3.62861311 -0.17845638 0 0 Z " fill="#555555" transform="translate(312,304)"/>
<path d="M0 0 C0.99 0 1.98 0 3 0 C3 4.62 3 9.24 3 14 C2.01 14 1.02 14 0 14 C0 9.38 0 4.76 0 0 Z " fill="#2C2C2C" transform="translate(149,304)"/>
<path d="M0 0 C2.64 0 5.28 0 8 0 C8.66 1.32 9.32 2.64 10 4 C5.25 3.125 5.25 3.125 3 2 C3 2.66 3 3.32 3 4 C2.34 4 1.68 4 1 4 C1 5.65 1 7.3 1 9 C0.67 9 0.34 9 0 9 C0 7.35 0 5.7 0 4 C-0.66 4 -1.32 4 -2 4 C-1.34 2.68 -0.68 1.36 0 0 Z " fill="#5F5F5F" transform="translate(160,304)"/>
<path d="M0 0 C0.99 0 1.98 0 3 0 C3 4.29 3 8.58 3 13 C2.01 13.33 1.02 13.66 0 14 C0 9.38 0 4.76 0 0 Z " fill="#2E2E2E" transform="translate(369,304)"/>
<path d="M0 0 C0.66 0 1.32 0 2 0 C1.96519531 0.94101563 1.93039063 1.88203125 1.89453125 2.8515625 C1.86746094 4.09679687 1.84039062 5.34203125 1.8125 6.625 C1.77769531 7.85476562 1.74289063 9.08453125 1.70703125 10.3515625 C2.0212053 14.26407664 3.03093467 16.64070218 5 20 C3.02 20 1.04 20 -1 20 C-0.67 13.4 -0.34 6.8 0 0 Z " fill="#C56091" transform="translate(235,245)"/>
<path d="M0 0 C2.97 0.495 2.97 0.495 6 1 C6.33 2.98 6.66 4.96 7 7 C5.25 7.6875 5.25 7.6875 3 8 C0.75 6.5625 0.75 6.5625 -1 5 C-0.67 3.35 -0.34 1.7 0 0 Z " fill="#617DC1" transform="translate(89,268)"/>
<path d="M0 0 C1.32 0.66 2.64 1.32 4 2 C4 2.66 4 3.32 4 4 C4.66 4 5.32 4 6 4 C6 4.66 6 5.32 6 6 C-0.435 6.495 -0.435 6.495 -7 7 C-4.66666667 4.66666667 -2.33333333 2.33333333 0 0 Z " fill="#B94884" transform="translate(259,261)"/>
<path d="M0 0 C1.32 1.32 2.64 2.64 4 4 C2.63016497 7.16115776 2.0109362 7.9927092 -1 10 C-3.6875 9.625 -3.6875 9.625 -6 9 C-6 8.34 -6 7.68 -6 7 C-6.99 6.67 -7.98 6.34 -9 6 C-8.34 5.67 -7.68 5.34 -7 5 C-4.525 6.98 -4.525 6.98 -2 9 C-1.7834375 7.88625 -1.7834375 7.88625 -1.5625 6.75 C-1.09812508 4.47972261 -0.58136431 2.24240521 0 0 Z " fill="#C46FA0" transform="translate(263,235)"/>
<path d="M0 0 C0.55171875 0.30679687 1.1034375 0.61359375 1.671875 0.9296875 C4.20540121 2.09442941 6.51171762 2.62057956 9.25 3.125 C10.14203125 3.29257812 11.0340625 3.46015625 11.953125 3.6328125 C12.96632812 3.81457031 12.96632812 3.81457031 14 4 C14.33 5.65 14.66 7.3 15 9 C13.02 9 11.04 9 9 9 C9.66 7.35 10.32 5.7 11 4 C8.03 4 5.06 4 2 4 C1.34 2.68 0.68 1.36 0 0 Z " fill="#B8367A" transform="translate(240,265)"/>
<path d="M0 0 C2.97 0 5.94 0 9 0 C8.67 0.66 8.34 1.32 8 2 C7.32650839 3.66392045 6.6590841 5.33032028 6 7 C4.68 6.67 3.36 6.34 2 6 C2.33 5.67 2.66 5.34 3 5 C2.01 4.34 1.02 3.68 0 3 C0 2.01 0 1.02 0 0 Z " fill="#B11B69" transform="translate(231,265)"/>
<path d="M0 0 C1.6026782 -0.10824843 3.20745748 -0.18570645 4.8125 -0.25 C5.70582031 -0.29640625 6.59914062 -0.3428125 7.51953125 -0.390625 C10 0 10 0 11.82421875 1.890625 C13 4 13 4 13 6 C11.68 5.67 10.36 5.34 9 5 C9 4.01 9 3.02 9 2 C8.05125 2.020625 7.1025 2.04125 6.125 2.0625 C3 2 3 2 1 1 C0.67 1.99 0.34 2.98 0 4 C0 2.68 0 1.36 0 0 Z M7 5 C7.66 5 8.32 5 9 5 C8.67 5.66 8.34 6.32 8 7 C7.67 6.34 7.34 5.68 7 5 Z " fill="#998BE0" transform="translate(126,229)"/>
<path d="M0 0 C2.97 0 5.94 0 9 0 C9.33 1.32 9.66 2.64 10 4 C9.01 4.495 9.01 4.495 8 5 C8 4.34 8 3.68 8 3 C5.36 3.33 2.72 3.66 0 4 C0 2.68 0 1.36 0 0 Z " fill="#454545" transform="translate(176,304)"/>
<path d="M0 0 C0.66 0 1.32 0 2 0 C2 4.95 2 9.9 2 15 C1.34 15 0.68 15 0 15 C0 13.02 0 11.04 0 9 C-0.66 9 -1.32 9 -2 9 C-2 8.34 -2 7.68 -2 7 C-1.34 7 -0.68 7 0 7 C0 4.69 0 2.38 0 0 Z " fill="#0E0E0E" transform="translate(140,299)"/>
<path d="M0 0 C1.32 0 2.64 0 4 0 C4.33 2.31 4.66 4.62 5 7 C4.34 6.34 3.68 5.68 3 5 C2.67 6.32 2.34 7.64 2 9 C1.01 8.67 0.02 8.34 -1 8 C-0.67 5.36 -0.34 2.72 0 0 Z " fill="#B21C69" transform="translate(259,235)"/>
<path d="M0 0 C0 0.66 0 1.32 0 2 C0.66 2.33 1.32 2.66 2 3 C0.625 4.5 0.625 4.5 -1 6 C-1.66 6 -2.32 6 -3 6 C-3.33 5.34 -3.66 4.68 -4 4 C-5.98 4.99 -5.98 4.99 -8 6 C-6.24081631 1.94034532 -4.71412298 0 0 0 Z " fill="#6D7FC5" transform="translate(98,231)"/>
<path d="M0 0 C3.3 0 6.6 0 10 0 C9.67 1.98 9.34 3.96 9 6 C8.01 6 7.02 6 6 6 C5.67 4.68 5.34 3.36 5 2 C3.35 1.67 1.7 1.34 0 1 C0 0.67 0 0.34 0 0 Z " fill="#A378E5" transform="translate(159,229)"/>
<path d="M0 0 C0.33 0 0.66 0 1 0 C1.2475 1.11375 1.495 2.2275 1.75 3.375 C2.61005339 7.04615198 2.61005339 7.04615198 5.125 8.4375 C5.74375 8.623125 6.3625 8.80875 7 9 C6 10 6 10 3 10.125 C0 10 0 10 -1 9 C-1.1328125 7.1875 -1.1328125 7.1875 -1.125 5 C-1.12757813 4.278125 -1.13015625 3.55625 -1.1328125 2.8125 C-1 1 -1 1 0 0 Z " fill="#202020" transform="translate(303,307)"/>
<path d="M0 0 C2.875 -0.125 2.875 -0.125 6 0 C8 2 8 2 8.125 5.625 C8.08375 6.73875 8.0425 7.8525 8 9 C7.34 9 6.68 9 6 9 C5.7525 8.2575 5.505 7.515 5.25 6.75 C3.90852699 3.79875938 2.39094474 2.15185026 0 0 Z " fill="#2A2A2A" transform="translate(335,304)"/>
<path d="M0 0 C2.31 0.33 4.62 0.66 7 1 C7 1.66 7 2.32 7 3 C7.721875 2.95875 8.44375 2.9175 9.1875 2.875 C12.20729369 3.00921305 14.26935729 3.75170619 17 5 C17 5.33 17 5.66 17 6 C10.22613615 5.72740991 5.65275661 4.80946641 0 1 C0 0.67 0 0.34 0 0 Z " fill="#C05A8F" transform="translate(233,272)"/>
<path d="M0 0 C3.3 0 6.6 0 10 0 C8.02 0.99 8.02 0.99 6 2 C6 3.32 6 4.64 6 6 C3.625 6.1875 3.625 6.1875 1 6 C0.34 5.01 -0.32 4.02 -1 3 C-0.34 2.67 0.32 2.34 1 2 C0.67 1.34 0.34 0.68 0 0 Z " fill="#B5196B" transform="translate(244,231)"/>
<path d="M0 0 C0.33 0 0.66 0 1 0 C1.21691118 3.18136394 1.25066255 5.43969547 -0.0625 8.375 C-2.93947559 10.78794727 -5.37659799 10.2734643 -9 10 C-7.03617993 8.49440461 -5.21736634 7.10868317 -3 6 C-2.67 5.34 -2.34 4.68 -2 4 C-1.34 4.33 -0.68 4.66 0 5 C0 3.35 0 1.7 0 0 Z " fill="#686868" transform="translate(343,308)"/>
<path d="M0 0 C2.05078125 0.03255208 4.1015625 0.06510417 6.15234375 0.09765625 C6.15234375 0.42765625 6.15234375 0.75765625 6.15234375 1.09765625 C4.50234375 1.42765625 2.85234375 1.75765625 1.15234375 2.09765625 C0.82234375 3.41765625 0.49234375 4.73765625 0.15234375 6.09765625 C1.14234375 6.42765625 2.13234375 6.75765625 3.15234375 7.09765625 C1.17234375 7.09765625 -0.80765625 7.09765625 -2.84765625 7.09765625 C-2.89019981 5.09810879 -2.88846408 3.09723989 -2.84765625 1.09765625 C-1.84765625 0.09765625 -1.84765625 0.09765625 0 0 Z " fill="#292929" transform="translate(177.84765625,309.90234375)"/>
<path d="M0 0 C4.38889325 0.66498383 7.9811485 2.18757677 12 4 C9.35261084 5.4606285 8.10551666 6 5 6 C5 5.01 5 4.02 5 3 C3.02 3.33 1.04 3.66 -1 4 C-0.67 2.68 -0.34 1.36 0 0 Z " fill="#7688BD" transform="translate(89,263)"/>
<path d="M0 0 C0.66 0 1.32 0 2 0 C4.60018816 3.90028225 4.15085514 7.47434569 4 12 C3.01 12.495 3.01 12.495 2 13 C1.26167392 8.67551867 0.60825035 4.34464536 0 0 Z " fill="#9C99D0" transform="translate(120,255)"/>
<path d="M0 0 C0.33 0 0.66 0 1 0 C1.25 5.625 1.25 5.625 -1 9 C-1.66 9 -2.32 9 -3 9 C-3.33 10.32 -3.66 11.64 -4 13 C-4.66 13 -5.32 13 -6 13 C-4.31326082 8.50202887 -2.18326108 4.27113698 0 0 Z " fill="#9470DF" transform="translate(154,237)"/>
<path d="M0 0 C0 0.66 0 1.32 0 2 C0.66 2 1.32 2 2 2 C2 2.66 2 3.32 2 4 C0.35 4 -1.3 4 -3 4 C-3 3.34 -3 2.68 -3 2 C-3.99 2.33 -4.98 2.66 -6 3 C-7.32 3 -8.64 3 -10 3 C-10 2.34 -10 1.68 -10 1 C-6.78548731 -0.60725635 -3.56387464 -0.05748185 0 0 Z " fill="#515151" transform="translate(258,304)"/>
<path d="M0 0 C0.99 0 1.98 0 3 0 C3 1.65 3 3.3 3 5 C3.99 5.33 4.98 5.66 6 6 C5.01 6.99 4.02 7.98 3 9 C0.90250005 6.64031256 0.03094296 5.45383006 -0.1875 2.25 C-0.125625 1.5075 -0.06375 0.765 0 0 Z " fill="#3D3D3D" transform="translate(157,308)"/>
<path d="M0 0 C0.66 0.33 1.32 0.66 2 1 C-0.475 5.455 -0.475 5.455 -3 10 C-5.22189824 7.77810176 -5.92598892 5.91517292 -7 3 C-6.01 3 -5.02 3 -4 3 C-4 3.66 -4 4.32 -4 5 C-3.34 5 -2.68 5 -2 5 C-2 4.01 -2 3.02 -2 2 C-1.34 2 -0.68 2 0 2 C0 1.34 0 0.68 0 0 Z " fill="#9770E8" transform="translate(160,244)"/>
<path d="M0 0 C1.66611905 -0.042721 3.33382885 -0.04063832 5 0 C6 1 6 1 6.0625 3.5625 C6.041875 4.366875 6.02125 5.17125 6 6 C3.03 6 0.06 6 -3 6 C-3 5.67 -3 5.34 -3 5 C-0.69 5 1.62 5 4 5 C4 4.34 4 3.68 4 3 C2.68 2.67 1.36 2.34 0 2 C0 1.34 0 0.68 0 0 Z " fill="#121212" transform="translate(117,305)"/>
<path d="M0 0 C-3.75 2 -3.75 2 -6 2 C-6 3.65 -6 5.3 -6 7 C-6.99 6.67 -7.98 6.34 -9 6 C-8.67 4.02 -8.34 2.04 -8 0 C-4.71023192 -1.09658936 -3.28696233 -0.79953138 0 0 Z " fill="#7075D2" transform="translate(117,251)"/>
<path d="M0 0 C0.33 0 0.66 0 1 0 C1.02725341 1.7290774 1.04650987 3.45828176 1.0625 5.1875 C1.07410156 6.15042969 1.08570313 7.11335937 1.09765625 8.10546875 C1.00486622 10.85576513 0.62111685 13.32479591 0 16 C-0.33 16 -0.66 16 -1 16 C-2.08360869 9.93179132 -1.79074734 5.89893243 0 0 Z " fill="#BB5C8D" transform="translate(226,244)"/>
<path d="M0 0 C-0.875 3.875 -0.875 3.875 -2 5 C-4.33297433 5.04092937 -6.66705225 5.04241723 -9 5 C-8.25 3.0625 -8.25 3.0625 -7 1 C-4.50529228 0.03430669 -2.70254461 0 0 0 Z " fill="#6D6D6D" transform="translate(390,313)"/>
<path d="M0 0 C1.32 0 2.64 0 4 0 C2.125 3.875 2.125 3.875 1 5 C-1.33297433 5.04092937 -3.66705225 5.04241723 -6 5 C-3 3 -3 3 -1 3 C-0.67 2.01 -0.34 1.02 0 0 Z " fill="#676767" transform="translate(256,313)"/>
<path d="M0 0 C0.33 0.66 0.66 1.32 1 2 C3.02463255 2.65213292 3.02463255 2.65213292 5 3 C5 3.99 5 4.98 5 6 C4.34 6 3.68 6 3 6 C2.67 6.99 2.34 7.98 2 9 C0 7 0 7 -0.125 3.375 C-0.08375 2.26125 -0.0425 1.1475 0 0 Z " fill="#5470B6" transform="translate(88,243)"/>
<path d="M0 0 C0.99 0.33 1.98 0.66 3 1 C3.33 1.99 3.66 2.98 4 4 C2.35 4.66 0.7 5.32 -1 6 C-1.66 5.01 -2.32 4.02 -3 3 C-2.01 2.01 -1.02 1.02 0 0 Z " fill="#8241F8" transform="translate(159,234)"/>
<path d="M0 0 C0.99 0.33 1.98 0.66 3 1 C3.66 0.67 4.32 0.34 5 0 C4.67 2.64 4.34 5.28 4 8 C3.01 8 2.02 8 1 8 C-0.35439668 5.29120665 -0.06501451 2.99066732 0 0 Z " fill="#B13574" transform="translate(226,257)"/>
<path d="M0 0 C2.97 0.495 2.97 0.495 6 1 C6 3.31 6 5.62 6 8 C1.125 3.375 1.125 3.375 0 0 Z " fill="#B35CB3" transform="translate(194,259)"/>
<path d="M0 0 C0.66 0 1.32 0 2 0 C2 0.66 2 1.32 2 2 C2.66 2.33 3.32 2.66 4 3 C3.01 3.99 2.02 4.98 1 6 C0.67 5.34 0.34 4.68 0 4 C-0.33 6.31 -0.66 8.62 -1 11 C-1.33 11 -1.66 11 -2 11 C-2.25 3.375 -2.25 3.375 0 0 Z " fill="#777777" transform="translate(351,304)"/>
<path d="M0 0 C0.33 0 0.66 0 1 0 C1 2.31 1 4.62 1 7 C0.34 7 -0.32 7 -1 7 C-1.33 7.66 -1.66 8.32 -2 9 C-3.32 8.34 -4.64 7.68 -6 7 C-6 6.34 -6 5.68 -6 5 C-4.02 5 -2.04 5 0 5 C0 3.35 0 1.7 0 0 Z " fill="#474747" transform="translate(139,299)"/>
<path d="M0 0 C1.98 0.99 1.98 0.99 4 2 C4 3.98 4 5.96 4 8 C2.68 7.34 1.36 6.68 0 6 C0 4.02 0 2.04 0 0 Z " fill="#2F2F2F" transform="translate(88,300)"/>
<path d="M0 0 C2.64752004 2.57784846 4.94432065 4.91648098 7 8 C6.34 8 5.68 8 5 8 C4.67 9.32 4.34 10.64 4 12 C3.896875 11.071875 3.79375 10.14375 3.6875 9.1875 C2.96516098 5.83847362 2.40619812 5.1969635 0 3 C0 2.01 0 1.02 0 0 Z " fill="#C072BB" transform="translate(197,247)"/>
<path d="M0 0 C-0.33 0.66 -0.66 1.32 -1 2 C-3.06265822 2.3911938 -5.09443267 2.50674519 -7.1875 2.65625 C-7.785625 2.7696875 -8.38375 2.883125 -9 3 C-9.33 3.66 -9.66 4.32 -10 5 C-10 3.68 -10 2.36 -10 1 C-6.61981469 -0.04005702 -3.5219721 -0.08004482 0 0 Z " fill="#7685C4" transform="translate(108,237)"/>
<path d="M0 0 C1.65 0 3.3 0 5 0 C5 0.66 5 1.32 5 2 C6.32 2.66 7.64 3.32 9 4 C5.37 4 1.74 4 -2 4 C-1.34 2.68 -0.68 1.36 0 0 Z " fill="#868686" transform="translate(178,314)"/>
<path d="M0 0 C0.66 0.33 1.32 0.66 2 1 C2 2.65 2 4.3 2 6 C0.68 6.33 -0.64 6.66 -2 7 C-2.6875 5.1875 -2.6875 5.1875 -3 3 C-1.5625 1.25 -1.5625 1.25 0 0 Z " fill="#625ED2" transform="translate(117,234)"/>
<path d="M0 0 C2.64 0 5.28 0 8 0 C8 0.66 8 1.32 8 2 C8.66 2 9.32 2 10 2 C9.67 2.66 9.34 3.32 9 4 C8.34 3.67 7.68 3.34 7 3 C6.67 3.99 6.34 4.98 6 6 C5.34 5.34 4.68 4.68 4 4 C4.33 3.34 4.66 2.68 5 2 C3.35 1.67 1.7 1.34 0 1 C0 0.67 0 0.34 0 0 Z " fill="#C580E3" transform="translate(176,229)"/>
<path d="M0 0 C2.31 0 4.62 0 7 0 C6.67 1.32 6.34 2.64 6 4 C4.02 3.34 2.04 2.68 0 2 C0 1.34 0 0.68 0 0 Z " fill="#353535" transform="translate(353,304)"/>
<path d="M0 0 C0.99 0 1.98 0 3 0 C2.67 0.99 2.34 1.98 2 3 C-2.455 3.495 -2.455 3.495 -7 4 C-6.67 3.34 -6.34 2.68 -6 2 C-4.02 2 -2.04 2 0 2 C0 1.34 0 0.68 0 0 Z " fill="#AF4479" transform="translate(257,273)"/>
<path d="M0 0 C2.31 0 4.62 0 7 0 C7 0.66 7 1.32 7 2 C8.65 1.67 10.3 1.34 12 1 C12 1.99 12 2.98 12 4 C6.06 2.515 6.06 2.515 0 1 C0 0.67 0 0.34 0 0 Z " fill="#9396D5" transform="translate(99,257)"/>
<path d="M0 0 C4.875 4.625 4.875 4.625 6 8 C4.35 8.33 2.7 8.66 1 9 C0.67 6.03 0.34 3.06 0 0 Z " fill="#B565BD" transform="translate(191,239)"/>
<path d="M0 0 C0 0.99 0 1.98 0 3 C-3.14737182 2.30058404 -6.02588876 1.23921302 -9 0 C-9 -0.33 -9 -0.66 -9 -1 C-5.22102349 -2.0497157 -3.35080929 -2.10976881 0 0 Z " fill="#8D8CD1" transform="translate(118,240)"/>
<path d="M0 0 C0.66 0 1.32 0 2 0 C2 1.98 2 3.96 2 6 C2.66 6 3.32 6 4 6 C4 7.32 4 8.64 4 10 C3.01 9.67 2.02 9.34 1 9 C0.67 6.03 0.34 3.06 0 0 Z " fill="#4A4A4A" transform="translate(138,308)"/>
<path d="M0 0 C0.33 0 0.66 0 1 0 C1.125 2.375 1.125 2.375 1 5 C-1 7 -1 7 -2.9453125 7.1953125 C-4.96354167 7.13020833 -6.98177083 7.06510417 -9 7 C-9 6.67 -9 6.34 -9 6 C-6.69 6 -4.38 6 -2 6 C-1.34 4.02 -0.68 2.04 0 0 Z " fill="#8B8B8B" transform="translate(406,311)"/>
<path d="M0 0 C1.98 0.66 3.96 1.32 6 2 C4 4 4 4 1.375 4.125 C0.59125 4.08375 -0.1925 4.0425 -1 4 C-1.33 3.34 -1.66 2.68 -2 2 C-1.34 2 -0.68 2 0 2 C0 1.34 0 0.68 0 0 Z " fill="#5C5C5C" transform="translate(399,308)"/>
<path d="M0 0 C1.67542976 0.28604898 3.34385343 0.61781233 5 1 C5.33 1.99 5.66 2.98 6 4 C1.25 3.25 1.25 3.25 -1 1 C-0.67 0.67 -0.34 0.34 0 0 Z " fill="#404040" transform="translate(164,304)"/>
<path d="M0 0 C1.65 0 3.3 0 5 0 C5 1.32 5 2.64 5 4 C2.03 3.505 2.03 3.505 -1 3 C-0.67 2.01 -0.34 1.02 0 0 Z " fill="#525252" transform="translate(401,304)"/>
<path d="M0 0 C0 0.66 0 1.32 0 2 C-0.99 2 -1.98 2 -3 2 C-3.33 3.32 -3.66 4.64 -4 6 C-4.66 6 -5.32 6 -6 6 C-6 4.35 -6 2.7 -6 1 C-4 0 -4 0 0 0 Z " fill="#5C61CA" transform="translate(117,252)"/>
<path d="M0 0 C0.99 0 1.98 0 3 0 C2.34 1.98 1.68 3.96 1 6 C-0.32 5.67 -1.64 5.34 -3 5 C-3 4.34 -3 3.68 -3 3 C-2.34 3 -1.68 3 -1 3 C-0.67 2.01 -0.34 1.02 0 0 Z " fill="#A82ABB" transform="translate(193,247)"/>
<path d="M0 0 C0 0.66 0 1.32 0 2 C-0.66 2 -1.32 2 -2 2 C-2 2.99 -2 3.98 -2 5 C-1.34 5.33 -0.68 5.66 0 6 C-0.99 6 -1.98 6 -3 6 C-3.66 4.35 -4.32 2.7 -5 1 C-3 0 -3 0 0 0 Z " fill="#AB55C1" transform="translate(192,248)"/>
<path d="M0 0 C2 2 2 2 2 5 C2.66 5.33 3.32 5.66 4 6 C2.02 6.99 2.02 6.99 0 8 C-0.98120464 4.94736336 -0.98120464 3.05263664 0 0 Z " fill="#717171" transform="translate(92,304)"/>
<path d="M0 0 C0.99 0.33 1.98 0.66 3 1 C2.34 2.65 1.68 4.3 1 6 C0.67 5.34 0.34 4.68 0 4 C-0.66 4 -1.32 4 -2 4 C-1.34 2.68 -0.68 1.36 0 0 Z " fill="#4C4C4C" transform="translate(333,304)"/>
<path d="M0 0 C0.99 0.99 1.98 1.98 3 3 C2.34 4.32 1.68 5.64 1 7 C0.01 7 -0.98 7 -2 7 C-1.67 6.01 -1.34 5.02 -1 4 C-0.65772583 2.66893378 -0.32248257 1.33599921 0 0 Z " fill="#B744AA" transform="translate(204,256)"/>
<path d="M0 0 C0.33 0.66 0.66 1.32 1 2 C2.88764903 2.68472665 2.88764903 2.68472665 5.0625 3.125 C5.79597656 3.29257813 6.52945313 3.46015625 7.28515625 3.6328125 C7.85105469 3.75398437 8.41695312 3.87515625 9 4 C9 4.33 9 4.66 9 5 C2.25 5.125 2.25 5.125 0 4 C0 2.68 0 1.36 0 0 Z " fill="#7C87C6" transform="translate(98,244)"/>
<path d="M0 0 C0.99 0 1.98 0 3 0 C3 1.32 3 2.64 3 4 C2.01 4 1.02 4 0 4 C0 2.68 0 1.36 0 0 Z " fill="#5F5F5F" transform="translate(149,299)"/>
<path d="M0 0 C0.99 0 1.98 0 3 0 C2.67 1.32 2.34 2.64 2 4 C1.34 4 0.68 4 0 4 C0 2.68 0 1.36 0 0 Z " fill="#545454" transform="translate(369,299)"/>
</svg>
