<?xml version="1.0" encoding="UTF-8"?>
<svg version="1.1" xmlns="http://www.w3.org/2000/svg" width="1080" height="1080">
<path d="M0 0 C356.4 0 712.8 0 1080 0 C1080 356.4 1080 712.8 1080 1080 C723.6 1080 367.2 1080 0 1080 C0 723.6 0 367.2 0 0 Z " fill="#FEFEFE" transform="translate(0,0)"/>
<path d="M0 0 C11.67242765 8.75858075 18.23953635 19.9581454 21.75 34 C22.9967571 48.9610852 20.08092842 62.55876211 10.92578125 74.765625 C3.07966028 83.91258627 -6.96246486 90.77082683 -19 93 C-34.88138884 93.85845345 -46.42835813 91.78944937 -59.0390625 81.3046875 C-69.36678455 71.52292433 -75.04663427 58.84667043 -75.4921875 44.67529297 C-75.53861589 29.8907523 -71.37539196 16.97256761 -61.11328125 5.9140625 C-54.64962312 0.05973259 -47.34203282 -4.46759718 -39 -7 C-38.41605469 -7.18304688 -37.83210937 -7.36609375 -37.23046875 -7.5546875 C-23.86213469 -10.22367188 -11.22066614 -7.37493713 0 0 Z " fill="#040404" transform="translate(663,505)"/>
<path d="M0 0 C8.270625 -0.061875 16.54125 -0.12375 25.0625 -0.1875 C28.96074585 -0.22846802 28.96074585 -0.22846802 32.93774414 -0.27026367 C35.01187679 -0.27903062 37.08601462 -0.28667406 39.16015625 -0.29296875 C40.22552612 -0.30831665 41.290896 -0.32366455 42.3885498 -0.33947754 C51.79396169 -0.34277344 58.87194102 1.97271074 65.7890625 8.75390625 C72.88474458 16.46857337 76.37218069 24.01496909 76.21484375 34.5390625 C75.39764558 43.89969604 71.43019906 52.24874759 64.3125 58.375 C63.20905278 59.25090711 62.1049842 60.12603265 61 61 C60.34 61.66 59.68 62.32 59 63 C59.47457642 63.79096069 59.47457642 63.79096069 59.95874023 64.59790039 C60.40419189 65.34031982 60.84964355 66.08273926 61.30859375 66.84765625 C61.80456055 67.67418701 62.30052734 68.50071777 62.81152344 69.35229492 C63.89970103 71.16608763 64.98758948 72.98005384 66.07519531 74.79418945 C68.64375564 79.07777525 71.21496464 83.35961719 73.80078125 87.6328125 C74.217229 88.32238037 74.63367676 89.01194824 75.06274414 89.72241211 C75.84270444 91.01336429 76.62439086 92.30327548 77.40795898 93.59204102 C80 97.88789035 80 97.88789035 80 99 C73.06225255 99.86354126 65.86626204 100.64405393 59 99 C54.40581952 95.21024801 52.34947986 90.33823406 50 85 C45.766013 75.12545082 45.766013 75.12545082 39 67 C32.36280715 64.58563161 26.00386968 65.52994163 19 66 C19 76.89 19 87.78 19 99 C12.73 99 6.46 99 0 99 C0 66.33 0 33.66 0 0 Z " fill="#030303" transform="translate(705,498)"/>
<path d="M0 0 C5.28 0 10.56 0 16 0 C21.92597949 6.27456652 21.92597949 6.27456652 23.6484375 9.23046875 C25.97480768 13.04056362 28.63703492 16.46745446 31.4375 19.9375 C32.36472254 21.11214498 33.29049918 22.28793271 34.21484375 23.46484375 C34.67487793 24.04862793 35.13491211 24.63241211 35.60888672 25.23388672 C37.90874235 28.15371045 40.20417785 31.07700451 42.5 34 C45.29609309 37.55920912 48.09264576 41.11805462 50.890625 44.67578125 C51.36951172 45.28486328 51.84839844 45.89394531 52.34179688 46.52148438 C53.23874189 47.6622591 54.1358587 48.8028988 55.03320312 49.94335938 C58.70629045 54.61561728 62.35105033 59.30849329 66 64 C66.33 42.88 66.66 21.76 67 0 C73.27 0 79.54 0 86 0 C86 32.67 86 65.34 86 99 C69 99 69 99 64.84765625 95.95703125 C63.39257812 93.97265625 63.39257812 93.97265625 62.0625 91.8125 C61.54494141 91.08289063 61.02738281 90.35328125 60.49414062 89.6015625 C59.44684257 88.12165674 58.42101911 86.62629327 57.41845703 85.11572266 C55.41476671 82.12708577 53.21955869 79.33234215 51 76.5 C50.2059375 75.4584375 49.411875 74.416875 48.59375 73.34375 C45.63788793 69.5011293 42.56887348 65.75252901 39.5 62 C32.80417989 53.81075424 26.34714142 45.46285523 20 37 C19.67 57.46 19.34 77.92 19 99 C12.73 99 6.46 99 0 99 C0 66.33 0 33.66 0 0 Z " fill="#A62BB0" transform="translate(381,498)"/>
<path d="M0 0 C22.44 0 44.88 0 68 0 C68 5.61 68 11.22 68 17 C51.83 17 35.66 17 19 17 C19 24.92 19 32.84 19 41 C32.86 41 46.72 41 61 41 C61 45.95 61 50.9 61 56 C47.14 56 33.28 56 19 56 C19 64.58 19 73.16 19 82 C35.5 82 52 82 69 82 C69 87.61 69 93.22 69 99 C46.23 99 23.46 99 0 99 C0 66.33 0 33.66 0 0 Z " fill="#030303" transform="translate(804,498)"/>
<path d="M0 0 C1 3 1 3 -0.43359375 6.13671875 C-1.09135973 7.3260128 -1.75977815 8.50946371 -2.4375 9.6875 C-2.77587891 10.29400391 -3.11425781 10.90050781 -3.46289062 11.52539062 C-4.29957915 13.0220025 -5.14862831 14.51169189 -6 16 C-9.3617907 15.29929889 -12.21824412 14.03741405 -15.3125 12.5625 C-23.94052886 8.62930107 -31.47022202 6.97239878 -41 8 C-44.24129043 9.25622225 -46.4080773 10.8161546 -48 14 C-48.57002098 19.68925346 -48.57002098 19.68925346 -46.3125 24.75 C-42.31358857 28.07691805 -37.06123863 29.01044751 -32.15478516 30.3828125 C-27.8051687 31.62865777 -23.49575318 32.99397557 -19.1875 34.375 C-18.30449219 34.64296387 -17.42148438 34.91092773 -16.51171875 35.18701172 C-8.08296677 37.90509382 -0.8124601 42.45811244 3.92578125 50.1171875 C6.87651084 58.03587271 6.42217909 68.021206 2.9375 75.6875 C-1.53055644 83.05916735 -7.88059652 87.321009 -16 90 C-35.56083591 94.41507657 -55.1384649 90.2869882 -72 80 C-73 77 -73 77 -71.34765625 73.42578125 C-70.59612277 72.04907832 -69.8339433 70.67814591 -69.0625 69.3125 C-68.67642578 68.61060547 -68.29035156 67.90871094 -67.89257812 67.18554688 C-66.93738227 65.45204328 -65.96984614 63.72534991 -65 62 C-64.32195312 62.38671875 -63.64390625 62.7734375 -62.9453125 63.171875 C-52.83613611 68.82853326 -43.81236246 73.16422119 -32.125 73.25 C-31.43019531 73.270625 -30.73539063 73.29125 -30.01953125 73.3125 C-25.2560987 73.34838273 -22.0298208 72.53866387 -18 70 C-16.22161023 66.44322047 -16.12857201 62.85439302 -17 59 C-22.59187702 52.20986362 -35.22952586 50.3146976 -43.47265625 48.04296875 C-52.005623 45.65292443 -61.28984596 42.36585429 -66.625 34.8125 C-70.15503342 27.5919771 -70.05190866 18.90444038 -68.38671875 11.140625 C-65.63458459 3.33280825 -60.28085801 -2.47658784 -53 -6.375 C-35.71976996 -13.89972445 -15.52393191 -10.19522674 0 0 Z " fill="#5968CA" transform="translate(260,507)"/>
<path d="M0 0 C3.40122215 3.04063413 6.63745612 6.07693372 9 10 C9.11328125 12.5390625 9.11328125 12.5390625 8 15 C5.27734375 17.23828125 5.27734375 17.23828125 1.9375 19.3125 C0.83277344 20.00988281 -0.27195312 20.70726562 -1.41015625 21.42578125 C-2.69212891 22.20501953 -2.69212891 22.20501953 -4 23 C-6.17344919 20.83574087 -8.32329986 18.66012065 -10.4375 16.4375 C-15.80418381 11.33260565 -21.47935128 8.93666428 -28.875 8.6875 C-37.30517701 8.90204043 -43.90476598 12.21801141 -50 18 C-57.38786404 27.03376793 -58.10847409 37.71166181 -57 49 C-54.90856158 57.07191523 -52.01973254 64.81356108 -44.75390625 69.42578125 C-42.53095295 70.68841873 -40.29245748 71.86953472 -38 73 C-37.01 73.495 -37.01 73.495 -36 74 C-27.78992484 74.72792818 -20.1109906 74.50819369 -13 70 C-9.80173449 67.04145823 -6.95736878 63.91473757 -5 60 C-1.04093183 61.43308135 2.28718181 63.33141949 5.8125 65.625 C6.78832031 66.25664063 7.76414062 66.88828125 8.76953125 67.5390625 C9.50558594 68.02117187 10.24164062 68.50328125 11 69 C7.65940475 78.26693969 0.71647012 83.85046916 -8 88 C-19.3573796 92.92867417 -33.07678836 94.33872081 -45 90.4375 C-59.16021126 84.22346233 -68.71858927 73.67246956 -74.625 59.59765625 C-76.3744149 55.02035193 -77.58520477 50.88125101 -78 46 C-78.0928125 44.93394531 -78.185625 43.86789062 -78.28125 42.76953125 C-78.92614989 28.24316118 -73.40889815 15.8631328 -64 5 C-45.7060012 -11.3162692 -20.6078613 -14.50406661 0 0 Z " fill="#B61D6F" transform="translate(565,506)"/>
<path d="M0 0 C1.12703015 0.71518324 2.23514995 1.4619639 3.3125 2.25 C4.17875 2.78625 5.045 3.3225 5.9375 3.875 C12.96753216 10.90503216 16.59401107 19.6248598 16.625 29.5 C16.43753293 40.77007892 13.58624876 49.43218631 5.87109375 57.81640625 C-0.76645535 63.87520447 -7.93270429 64.82114798 -16.56640625 64.6015625 C-24.05007074 63.75859654 -30.3733771 59.37382338 -35.0625 53.5390625 C-41.18539867 44.60983527 -43.02157748 33.89720883 -41.6875 23.25 C-39.15244759 13.98860851 -34.361734 6.33783437 -26.4375 0.8125 C-19.41764573 -3.17605356 -7.3333414 -3.5961578 0 0 Z " fill="#FCFCFC" transform="translate(648.6875,516.75)"/>
<path d="M0 0 C6.93 0 13.86 0 21 0 C26.79717445 9.9883749 32.24328267 20.09390644 37.5 30.375 C38.23408287 31.80483752 38.96845663 33.23452573 39.703125 34.6640625 C41.47208925 38.10767273 43.23717075 41.55324544 45 45 C49.00508483 38.80566405 52.45296972 32.43824525 55.8125 25.875 C60.33528832 17.11437302 65.02654983 8.51225125 70 0 C76.93 0 83.86 0 91 0 C87.80039896 6.67345361 84.39235767 13.16141021 80.73803711 19.59448242 C79.64005733 21.52969879 78.55136705 23.47020864 77.47094727 25.4152832 C74.70023411 30.37799396 71.87375457 35.25261762 68.74874878 40.00250244 C55.90171756 59.62560747 53.79497166 75.73473698 55 99 C48.73 99 42.46 99 36 99 C36.06703125 96.64488281 36.1340625 94.28976562 36.203125 91.86328125 C36.49658073 73.53635713 35.99548543 59.39863651 24.59350586 44.19482422 C20.09339324 37.9965689 16.48429479 31.15417425 12.85546875 24.421875 C11.30915296 21.57014314 9.74701331 18.72864679 8.17578125 15.890625 C7.67457764 14.98425293 7.17337402 14.07788086 6.65698242 13.14404297 C5.64169251 11.30891657 4.62494515 9.47459571 3.60668945 7.64111328 C3.14093506 6.79790527 2.67518066 5.95469727 2.1953125 5.0859375 C1.77266113 4.3232959 1.35000977 3.5606543 0.91455078 2.77490234 C0 1 0 1 0 0 Z " fill="#794DED" transform="translate(273,498)"/>
<path d="M0 0 C6.5278125 -0.0928125 6.5278125 -0.0928125 13.1875 -0.1875 C14.55156982 -0.21481201 15.91563965 -0.24212402 17.32104492 -0.27026367 C18.40490479 -0.27775635 19.48876465 -0.28524902 20.60546875 -0.29296875 C21.71043701 -0.3086792 22.81540527 -0.32438965 23.95385742 -0.34057617 C28.66688325 0.18636709 31.16808869 2.05254545 34.25 5.5625 C37.80071748 10.50814221 37.45515081 15.04932454 37 21 C35.62769007 25.11692979 33.56391078 28.19115176 30.17138672 30.95703125 C25.14752045 33.37011385 19.06195081 32.48837755 13.625 32.3125 C9.12875 32.209375 4.6325 32.10625 0 32 C0 21.44 0 10.88 0 0 Z " fill="#FAFAFA" transform="translate(724,515)"/>
<path d="M0 0 C3.92542611 2.20805219 6.14662755 4.90307142 8 9 C8 10.98 8 12.96 8 15 C0.41 15 -7.18 15 -15 15 C-12.5797509 20.63106761 -12.5797509 20.63106761 -10 23 C-7.89582032 23.35639561 -7.89582032 23.35639561 -5.5625 23.3125 C-4.78003906 23.32925781 -3.99757813 23.34601562 -3.19140625 23.36328125 C-0.49480158 22.91625053 0.12381022 21.89620248 2 20 C3.32 20 4.64 20 6 20 C5.03441599 22.54563057 4.06131195 23.94635204 2 25.75 C-2.36359478 27.56816449 -6.34442367 27.81300015 -11 27 C-15.04212464 24.07590983 -17.23578484 20.64267146 -19 16 C-19.54016234 11.6787013 -19.3251256 9.60380468 -17.25 5.75 C-12.17750478 -0.44971637 -7.79256274 -1.04209606 0 0 Z " fill="#2C2C2C" transform="translate(499,658)"/>
<path d="M0 0 C0.82242188 -0.03996094 1.64484375 -0.07992187 2.4921875 -0.12109375 C6.32807691 0.69275222 8.92989852 2.22434844 11.125 5.4375 C11.98714449 9.04407612 12.00992854 12.55410088 12 16.25 C12.020625 17.22904297 12.04125 18.20808594 12.0625 19.21679688 C12.10948056 21.62455066 12.129453 24.0293828 12.125 26.4375 C10.805 26.4375 9.485 26.4375 8.125 26.4375 C7.795 25.7775 7.465 25.1175 7.125 24.4375 C6.568125 24.92347656 6.01125 25.40945313 5.4375 25.91015625 C1.56828747 28.46566655 -2.39857046 28.08442586 -6.875 27.4375 C-9.5 25.9375 -9.5 25.9375 -10.875 23.4375 C-11.46925336 20.62200837 -11.51427407 18.24800222 -10.875 15.4375 C-9 12.9375 -9 12.9375 -5.875 11.4375 C-1.06251188 10.9010514 3.46229538 11.11299037 8.125 12.4375 C7.52638258 10.08578869 6.85575648 7.7515622 6.125 5.4375 C3.78562093 4.26781047 2.35130632 4.30385779 -0.25 4.3125 C-1.02085937 4.30992187 -1.79171875 4.30734375 -2.5859375 4.3046875 C-4.8078189 4.43360212 -6.74118508 4.82366283 -8.875 5.4375 C-8.875 4.4475 -8.875 3.4575 -8.875 2.4375 C-5.83930937 0.69582496 -3.49481505 0.09254183 0 0 Z " fill="#090909" transform="translate(530.875,657.5625)"/>
<path d="M0 0 C0.99 0 1.98 0 3 0 C3 5.61 3 11.22 3 17 C10.26 17 17.52 17 25 17 C25 11.39 25 5.78 25 0 C26.32 0 27.64 0 29 0 C29 12.21 29 24.42 29 37 C27.68 37 26.36 37 25 37 C25 31.39 25 25.78 25 20 C17.74 20 10.48 20 3 20 C3 25.28 3 30.56 3 36 C2.01 36 1.02 36 0 36 C0 24.12 0 12.24 0 0 Z " fill="#1A1A1A" transform="translate(436,648)"/>
<path d="M0 0 C1.32 0 2.64 0 4 0 C4.33 4.95 4.66 9.9 5 15 C6.65 13.68 8.3 12.36 10 11 C12.3515625 10.50390625 12.3515625 10.50390625 14.625 10.5625 C15.75808594 10.56443359 15.75808594 10.56443359 16.9140625 10.56640625 C19.51007628 11.10602709 20.38832654 11.92435994 22 14 C22.98043964 16.94131891 23.11621202 18.82501665 23.09765625 21.88671875 C23.09443359 22.82451172 23.09121094 23.76230469 23.08789062 24.72851562 C23.07951172 25.70498047 23.07113281 26.68144531 23.0625 27.6875 C23.05798828 28.67556641 23.05347656 29.66363281 23.04882812 30.68164062 C23.03704303 33.12115474 23.02059011 35.56054689 23 38 C21.68 38 20.36 38 19 38 C18.98018066 37.37432129 18.96036133 36.74864258 18.93994141 36.10400391 C18.84485774 33.27723481 18.73511254 30.45122185 18.625 27.625 C18.5940625 26.64015625 18.563125 25.6553125 18.53125 24.640625 C18.49257813 23.69960938 18.45390625 22.75859375 18.4140625 21.7890625 C18.36693115 20.48509521 18.36693115 20.48509521 18.31884766 19.15478516 C18.18770567 16.79038206 18.18770567 16.79038206 16 15 C13.12762267 14.41557037 13.12762267 14.41557037 10 15 C7.22613731 17.03743897 5.31617108 18.65670269 4.50610352 22.09838867 C4.28496577 24.51317231 4.20472332 26.88783919 4.1875 29.3125 C4.16236328 30.14845703 4.13722656 30.98441406 4.11132812 31.84570312 C4.0527301 33.89663409 4.02343507 35.94836593 4 38 C2.68 38 1.36 38 0 38 C0 25.46 0 12.92 0 0 Z " fill="#232323" transform="translate(609,647)"/>
<path d="M0 0 C0.99 0 1.98 0 3 0 C3 2.97 3 5.94 3 9 C5.31 9 7.62 9 10 9 C10 9.99 10 10.98 10 12 C7.69 12 5.38 12 3 12 C3.33 18.27 3.66 24.54 4 31 C8.47702364 32.06537205 8.47702364 32.06537205 11 32 C11 32.99 11 33.98 11 35 C7.95699684 36.52150158 5.345915 36.23899393 2 36 C-0.16926659 32.74610012 -0.24080049 31.86604043 -0.1953125 28.11328125 C-0.18886719 27.17548828 -0.18242188 26.23769531 -0.17578125 25.27148438 C-0.15902344 24.29501953 -0.14226563 23.31855469 -0.125 22.3125 C-0.11597656 21.32443359 -0.10695313 20.33636719 -0.09765625 19.31835938 C-0.0740843 16.87866235 -0.04118022 14.43945303 0 12 C-1.32 12 -2.64 12 -4 12 C-4 11.01 -4 10.02 -4 9 C-2.68 9 -1.36 9 0 9 C0 6.03 0 3.06 0 0 Z " fill="#111111" transform="translate(584,649)"/>
<path d="M0 0 C1.32 0 2.64 0 4 0 C4.33 11.22 4.66 22.44 5 34 C6.65 34.33 8.3 34.66 10 35 C9.67 35.99 9.34 36.98 9 38 C3.59662045 38.3602253 3.59662045 38.3602253 1.3190918 36.98510742 C-0.74263534 33.88240461 -0.36720387 30.64702007 -0.29296875 27.05078125 C-0.28872391 26.27816452 -0.28447906 25.50554779 -0.28010559 24.70951843 C-0.26332183 22.24349008 -0.22567147 19.77828104 -0.1875 17.3125 C-0.17245271 15.63998577 -0.15876438 13.96745872 -0.14648438 12.29492188 C-0.11341946 8.19629922 -0.06164028 4.09828849 0 0 Z " fill="#272727" transform="translate(559,647)"/>
<path d="M0 0 C2.9375 2.3125 2.9375 2.3125 5 5 C5 6.32 5 7.64 5 9 C-1.27 9 -7.54 9 -14 9 C-13 3 -13 3 -10.375 0.5625 C-6.21977955 -1.36121317 -4.35528757 -1.34617979 0 0 Z " fill="#F1F1F1" transform="translate(498,661)"/>
<path d="M0 0 C2.46212353 1.91810079 2.9876949 2.96308471 4 6 C4.08143855 7.62719482 4.1075302 9.25751719 4.09765625 10.88671875 C4.09443359 11.82451172 4.09121094 12.76230469 4.08789062 13.72851562 C4.07951172 14.70498047 4.07113281 15.68144531 4.0625 16.6875 C4.05798828 17.67556641 4.05347656 18.66363281 4.04882812 19.68164062 C4.03704303 22.12115474 4.02059011 24.56054689 4 27 C2.68 27 1.36 27 0 27 C-0.01981934 26.37432129 -0.03963867 25.74864258 -0.06005859 25.10400391 C-0.15514226 22.27723481 -0.26488746 19.45122185 -0.375 16.625 C-0.4059375 15.64015625 -0.436875 14.6553125 -0.46875 13.640625 C-0.50742187 12.69960938 -0.54609375 11.75859375 -0.5859375 10.7890625 C-0.6173584 9.91975098 -0.6487793 9.05043945 -0.68115234 8.15478516 C-0.81229433 5.79038206 -0.81229433 5.79038206 -3 4 C-6.95158471 3.65638394 -9.60535554 3.91098803 -13 6 C-13 3 -13 3 -11.5625 1.3125 C-7.8558735 -0.58601601 -4.08896363 -0.76809261 0 0 Z " fill="#1D1D1D" transform="translate(628,658)"/>
<path d="M0 0 C1.17949219 0.01804687 2.35898437 0.03609375 3.57421875 0.0546875 C4.92966797 0.08949219 4.92966797 0.08949219 6.3125 0.125 C6.5546875 5.828125 6.5546875 5.828125 4.375 8.5 C0.42385453 10.59652617 -3.28262236 11.08559218 -7.6875 10.125 C-9.8262261 6.91691085 -10.16480962 5.84801503 -9.6875 2.125 C-6.05554504 -0.29630331 -4.30400652 -0.08522785 0 0 Z " fill="#F3F3F3" transform="translate(532.6875,671.875)"/>
<path d="M0 0 C3.45658479 2.04573386 4.7785359 3.66780385 7 7 C7 9.31 7 11.62 7 14 C-0.26 14 -7.52 14 -15 14 C-15 13.67 -15 13.34 -15 13 C-8.73 13 -2.46 13 4 13 C2.75977732 6.34374327 2.75977732 6.34374327 -0.1875 4 C-3.93791238 2.66652004 -6.16913852 2.97387639 -10 4 C-12.7700997 5.96509909 -12.7700997 5.96509909 -15 8 C-15.66 8 -16.32 8 -17 8 C-16.69895795 5.19027419 -15.95275592 3.94330711 -14.125 1.75 C-9.49310775 -0.84385966 -5.19402366 -0.78886675 0 0 Z " fill="#171717" transform="translate(499,658)"/>
<path d="M0 0 C0.70125 0.268125 1.4025 0.53625 2.125 0.8125 C4.45594534 1.1621418 6.78904762 1.49804487 9.125 1.8125 C9.125 2.1425 9.125 2.4725 9.125 2.8125 C8.07699219 2.90337891 8.07699219 2.90337891 7.0078125 2.99609375 C6.09773437 3.07988281 5.18765625 3.16367187 4.25 3.25 C3.34507812 3.33121094 2.44015625 3.41242187 1.5078125 3.49609375 C-0.88610861 3.68239285 -0.88610861 3.68239285 -2.875 4.8125 C-2.545 7.1225 -2.215 9.4325 -1.875 11.8125 C3.25083611 11.91501672 8.07497778 11.84840199 13.125 10.8125 C12.795 12.1325 12.465 13.4525 12.125 14.8125 C11.795 14.1525 11.465 13.4925 11.125 12.8125 C10.568125 13.29847656 10.01125 13.78445313 9.4375 14.28515625 C5.56828747 16.84066655 1.60142954 16.45942586 -2.875 15.8125 C-5.5 14.3125 -5.5 14.3125 -6.875 11.8125 C-7.46841029 9.00100272 -7.54544788 6.61462833 -6.875 3.8125 C-3.242713 -0.3242713 -3.242713 -0.3242713 0 0 Z " fill="#111111" transform="translate(526.875,669.1875)"/>
<path d="M0 0 C2.28473292 1.45392095 3.34671154 2.79561538 5 5 C4.67 5.66 4.34 6.32 4 7 C3.34 7 2.68 7 2 7 C1.55527344 6.51015625 1.11054687 6.0203125 0.65234375 5.515625 C-1.48542869 3.55473681 -2.58255684 3.65371187 -5.4375 3.75 C-6.58025391 3.77320313 -6.58025391 3.77320313 -7.74609375 3.796875 C-9.92611261 3.99334117 -11.89683604 4.40594002 -14 5 C-14 4.01 -14 3.02 -14 2 C-9.47600884 -0.60155612 -5.10817765 -0.84998756 0 0 Z " fill="#171717" transform="translate(536,658)"/>
<path d="M0 0 C3.465 1.98 3.465 1.98 7 4 C5.56375905 8.30872286 4.45397435 9.54602565 1 13 C0.67 8.71 0.34 4.42 0 0 Z " fill="#B22C97" transform="translate(569,571)"/>
<path d="M0 0 C2.5625 2.1875 2.5625 2.1875 5 5 C5.0625 7.6875 5.0625 7.6875 4 10 C2.02 10.99 2.02 10.99 0 12 C0 8.04 0 4.08 0 0 Z " fill="#B63294" transform="translate(569,511)"/>
<path d="M0 0 C-0.33 1.32 -0.66 2.64 -1 4 C-1.33 3.34 -1.66 2.68 -2 2 C-2.86625 2.7425 -2.86625 2.7425 -3.75 3.5 C-6 5 -6 5 -10 5 C-10 4.34 -10 3.68 -10 3 C-10.99 2.67 -11.98 2.34 -13 2 C-11.58461283 1.66127487 -10.16762037 1.32925376 -8.75 1 C-7.56664062 0.7215625 -7.56664062 0.7215625 -6.359375 0.4375 C-4 0 -4 0 0 0 Z " fill="#333333" transform="translate(540,680)"/>
<path d="M0 0 C0.66 0 1.32 0 2 0 C2 1.32 2 2.64 2 4 C-5.26 4 -12.52 4 -20 4 C-20 3.67 -20 3.34 -20 3 C-13.73 2.67 -7.46 2.34 -1 2 C-0.67 1.34 -0.34 0.68 0 0 Z " fill="#020202" transform="translate(504,668)"/>
<path d="M0 0 C1.11375 0.3403125 1.11375 0.3403125 2.25 0.6875 C4.58094534 1.0371418 6.91404762 1.37304487 9.25 1.6875 C9.25 2.0175 9.25 2.3475 9.25 2.6875 C8.34636719 2.73648438 7.44273437 2.78546875 6.51171875 2.8359375 C5.33222656 2.91070313 4.15273438 2.98546875 2.9375 3.0625 C1.17986328 3.16691406 1.17986328 3.16691406 -0.61328125 3.2734375 C-3.90699887 3.47363747 -3.90699887 3.47363747 -6.75 5.6875 C-3.97762431 -0.71029006 -3.97762431 -0.71029006 0 0 Z " fill="#525252" transform="translate(526.75,669.3125)"/>
<path d="M0 0 C2.475 0.99 2.475 0.99 5 2 C5 2.33 5 2.66 5 3 C-1.625 5 -1.625 5 -5 5 C-3.35 3.35 -1.7 1.7 0 0 Z " fill="#1A1A1A" transform="translate(619,658)"/>
</svg>
